<svg xmlns="http://www.w3.org/2000/svg" xmlns:xlink="http://www.w3.org/1999/xlink" viewBox="0 0 238.64 238.64"><defs><style>.cls-1{fill:url(#radial-gradient);}.cls-2{fill:#0079DE;}</style><radialGradient id="radial-gradient" cx="119.32" cy="119.32" r="119.32" gradientUnits="userSpaceOnUse"><stop offset="0" stop-color="#262223"/><stop offset="1" stop-color="#231f20"/></radialGradient></defs><title>Artboard 1 copy 18</title><g id="base_square" data-name="base square"><rect class="cls-1" width="238.64" height="238.64" rx="32.93"/></g><g id="artwork"><polygon class="cls-2" points="152.68 164.67 135.24 158.89 135.24 211.03 138.02 210.55 138.09 210.54 150.4 208.42 150.43 208.42 150.55 208.4 150.55 208.39 152.83 208 153.18 168.04 152.71 167.59 152.68 164.67"/><polygon class="cls-2" points="85.93 167.59 85.46 168.04 85.81 208 88.19 208.41 88.24 208.42 100.55 210.54 100.67 210.56 103.4 211.03 103.4 158.89 85.96 164.67 85.93 167.59"/><polygon class="cls-2" points="138.26 22.23 100.38 22.23 76.52 39.36 76.52 42.26 100.51 27.29 138.13 27.29 138.19 27.33 162.12 42.25 162.12 39.36 138.26 22.23"/><polygon class="cls-2" points="100.66 27.79 76.57 42.81 78.62 48.53 101.38 34.95 137.26 34.95 137.32 34.99 160.01 48.52 162.06 42.81 137.98 27.79 100.66 27.79"/><path class="cls-2" d="M137.44,80.55h.68l.06,0,4,2.28V60.93s1.11-4.07,5-4.88h.1c3.9.82,4.95,6.94,5,7.2V88.66l4.93,2.83.71-37.06,2-5.43L137.44,35.64Z"/><path class="cls-2" d="M157.15,94.67,138.3,83.82v28l-3,10.1v33.22l18.09,6.37-.07-30.94v0l.54-1.85,2.62-9,0-12.64,1.82-2.25.07-1.32h-1.26Zm-19.83,26.51,2.45-9.11c.46-1.9,1.76-3.22,2.9-2.94s1.68,2.05,1.21,4l-.37,1.47-2.15,8.53Zm5.9,2.73,2.1-8.57c0-.11.05-.21.08-.31.51-1.67,1.63-2.8,2.59-2.56s1.48,1.94,1,3.77l-2.3,9.37ZM154,119.35l-2.14,8.71-3.21-1.62.08-.32,1.92-7.59c.43-1.77,1.54-3,2.46-2.8S154.45,117.58,154,119.35Z"/><polygon class="cls-2" points="81.48 92.07 81.48 92.17 80.46 92.17 80.46 92.91 81.32 94.19 100.52 83.14 138.12 83.14 138.18 83.17 157.32 94.19 158.18 92.91 158.18 92.17 157.15 92.17 157.16 92.06 137.98 81.05 121.01 81.05 100.66 81.05 81.48 92.07"/><polygon class="cls-2" points="153.33 161.99 134.94 155.52 103.7 155.52 85.32 161.99 85.32 162.06 84.18 162.06 84.22 162.75 85.39 164.24 85.66 164.24 103.65 158.29 135.07 158.3 152.98 164.24 153.25 164.24 154.41 162.75 154.45 162.06 153.33 162.06 153.33 161.99"/><polygon class="cls-2" points="135.24 216.34 152.8 211.13 152.82 208.51 135.24 211.53 135.24 216.34"/><path class="cls-2" d="M134.74,155V121.76l3.05-10.1v-28h-37v28l3.06,10.17V155Zm-7.17-45a2.84,2.84,0,1,1,5.58,0L132,120.09h-5.58Zm-11,0a2.84,2.84,0,1,1,5.58,0v10.1h-5.58Zm-8.3-3.38A3.13,3.13,0,0,1,111,110l1.15,10.1h-5.58L105.44,110A3.13,3.13,0,0,1,108.23,106.58Z"/><path class="cls-2" d="M136.94,80.55V35.45H101.7v45.1h6.14l0-27.65c0-.07,3.54-7.22,11.41-8.47h.08c7.87,1.25,11.38,8.4,11.41,8.47l0,.11V80.55Z"/><rect class="cls-2" x="103.9" y="211.57" width="30.84" height="4.85"/><polygon class="cls-2" points="103.9 211.08 109.18 211.08 109.22 211.08 129.42 211.07 129.46 211.07 134.74 211.07 134.74 158.79 103.9 158.79 103.9 211.08"/><polygon class="cls-2" points="85.84 211.13 103.4 216.34 103.4 211.53 85.81 208.51 85.84 211.13"/><path class="cls-2" d="M85.38,130.55l-.06,30.91,18.08-6.35V121.87l-3.06-10.17V83.82L81.49,94.67l.07,8.75H80.28l.08,1.32L82.18,107l0,12.64,2.61,9ZM96,109.13c1.14-.28,2.44,1,2.9,2.94v0l2.44,9.09-4,1.9-2.07-8.22-.45-1.78C94.29,111.18,94.83,109.41,96,109.13Zm-5.32,3.34c1-.25,2.22,1,2.67,2.87l2.1,8.57-3.49,1.7-2.3-9.37C89.17,114.41,89.64,112.72,90.65,112.47Zm-5.13,3.26c.92-.23,2,1,2.46,2.8l1.92,7.59.08.32-3.21,1.62-2.14-8.71C84.19,117.58,84.59,116,85.52,115.73Z"/><path class="cls-2" d="M80.77,54.51l.7,37L86,88.9V63.52c0-.3,1.1-6.43,5-7.24h.1c3.88.81,5,4.83,5,4.87V83.1l4.43-2.55h.68V35.64L78.8,49Z"/></g></svg>