<?xml version="1.0" encoding="utf-8"?>
<!-- Generator: Adobe Illustrator 25.3.1, SVG Export Plug-In . SVG Version: 6.00 Build 0)  -->
<svg version="1.1" id="Layer_1" xmlns="http://www.w3.org/2000/svg" xmlns:xlink="http://www.w3.org/1999/xlink" x="0px" y="0px"
	 viewBox="0 0 100 100" style="enable-background:new 0 0 100 100;" xml:space="preserve">
<style type="text/css">
	.st0{display:none;}
	.st1{display:inline;fill:#001B8C;}
	.st2{display:inline;fill:#0090C4;}
	.st3{display:inline;fill:#0022B2;}
	.st4{fill:#FFFFFF;}
</style>
<g id="bottomleft" class="st0">
	<path class="st1" d="M80.2,98.9V83.7H18.9c-1.8,0-3.2-1.4-3.2-3.2v-61H0v73.1c0,6.3,6.7,6.3,6.7,6.3L80.2,98.9z"/>
</g>
<g id="bottomright" class="st0">
	<path class="st2" d="M20,98.9V83.7h61.1c1.8,0,3.2-1.4,3.2-3.2v-61H100v73.1c0,6.3-6.7,6.3-6.7,6.3L20,98.9z"/>
</g>
<g id="topright" class="st0">
	<path class="st3" d="M20,0v15.3h61.1c1.8,0,3.2,1.4,3.2,3.2v61.4H100V6.3C100,0,93.3,0,93.3,0H20z"/>
</g>
<g id="topleft">
	<path class="st4" d="M80.2,0v15.3H18.9c-1.8,0-3.2,1.4-3.2,3.2v61.4H0V6.3C0,0,6.7,0,6.7,0H80.2z"/>
</g>
<g id="circle" class="st0">
	<circle class="st1" cx="50" cy="49.5" r="18.6"/>
</g>
</svg>
