<svg xmlns="http://www.w3.org/2000/svg" width="80" height="18" viewBox="0 0 80 18">
    <path fill="#3C79F6" fill-rule="evenodd" d="M65.134 5.394a3.593 3.593 0 0 0-6.221-.003c-.309.532-.403 1.132-.441 1.809l-.045.9v6.3l-.045.9c-.059 1.494-1.15 2.556-2.652 2.655l-.899.045V0c.9 0 2.465.455 3.164 1.234A7.151 7.151 0 0 1 62.022 0a7.17 7.17 0 0 1 5.394 2.438A7.17 7.17 0 0 1 72.809 0C76.78 0 80 3.224 80 7.2V18l-.898-.045c-1.485-.086-2.56-1.175-2.653-2.656l-.045-.899V8.099L76.36 7.2c-.036-.66-.13-1.271-.437-1.8a3.593 3.593 0 0 0-6.221-.012c-.31.532-.408 1.144-.444 1.812l-.045.9V18l-.898-.045c-1.483-.094-2.563-1.184-2.652-2.656l-.045-.899V8.1l-.045-.9c-.035-.676-.131-1.275-.44-1.806zM3.596 17.955c-1.493-.098-2.564-1.172-2.652-2.656L.899 14.4 11.685 3.6h-8.09l-.9-.045C1.226 3.47.162 2.363.046.899L0 0h13.483l.899.045c1.489.079 2.58 1.163 2.652 2.656l.045.899L6.292 14.4h8.09l.899.045c1.483.093 2.531 1.174 2.652 2.656l.045.899H4.494l-.898-.045zM51.3 2.636c3.51 3.515 3.51 9.213 0 12.728a8.98 8.98 0 0 1-12.712 0c-3.51-3.515-3.51-9.213 0-12.728A8.955 8.955 0 0 1 44.938 0c2.31.001 4.608.88 6.362 2.636zm-2.543 2.546a5.405 5.405 0 0 1 0 7.636 5.388 5.388 0 0 1-7.627 0 5.405 5.405 0 0 1 0-7.636 5.388 5.388 0 0 1 7.627 0zM32.423 2.636c3.51 3.515 3.51 9.213 0 12.728a8.98 8.98 0 0 1-12.712 0c-3.51-3.515-3.51-9.213 0-12.728A8.955 8.955 0 0 1 26.061 0c2.31.001 4.609.88 6.362 2.636zm-2.542 2.546a5.405 5.405 0 0 1 0 7.636 5.388 5.388 0 0 1-7.627 0 5.405 5.405 0 0 1 0-7.636 5.388 5.388 0 0 1 7.627 0z"/>
</svg>
