<svg viewBox="0 0 16 12" xmlns="http://www.w3.org/2000/svg" xmlns:xlink="http://www.w3.org/1999/xlink"><symbol id="a" viewBox="0 0 15.5 11.5"><path d="m1.49974 1.50439h12.5v8.5h-12.5z" fill="#fff"/><path d="m12.17919.25h-10.67919c-.69036 0-1.25.55964-1.25 1.25v8.5c0 .69036.55964 1.25 1.25 1.25h.30289" fill="none" stroke="#a1a5b0" stroke-linecap="round" stroke-linejoin="round" stroke-width=".5"/><path d="m13.69711.25h.30289c.69036 0 1.25.55964 1.25 1.25v8.5c0 .69036-.55964 1.25-1.25 1.25h-10.67919" fill="none" stroke="#a1a5b0" stroke-linecap="round" stroke-linejoin="round" stroke-width=".5"/></symbol><path d="m-8-10h32v32h-32z"/><use height="11.5" transform="translate(.25 .24793)" width="15.5" xlink:href="#a"/><g fill="#0071ce"><path d="m12.39491 8.63875-.46831-.52235-.48632.52235h-3.00799v-2.43161h-.95463l1.18879-2.7198h1.15276l.41427.93662v-.93662h1.44096l.25217.70247.25217-.70247h1.09873v-.41427c0-.25217-.19813-.4503-.4503-.4503h-9.65441c-.25217 0-.4503.19813-.4503.4503v5.85388c0 .25217.19813.4503.4503.4503h9.6544c.25217 0 .4503-.19813.4503-.4503v-.28819h-.88259z"/><path d="m12.521 8.35056h.7565l-.99066-1.06271.99066-1.04469h-.73849l-.63042.68445-.6124-.68445h-.75651l1.00867 1.06271-1.00867 1.04469h.73849l.63042-.68446z"/><path d="m9.33288 7.86424v-.32422h1.18879v-.48632h-1.18879v-.32422h1.2068v-.48632h-1.78318v2.1074h1.78318v-.48632z"/><path d="m12.71913 5.93696h.54036v-2.12541l-.86458.01801-.46831 1.31487-.48632-1.31487h-.9006v2.1074h.57639v-1.47698l.54035 1.47698h.50434l.55837-1.47698z"/><path d="m9.62107 3.82956h-.73849l-.93662 2.1074h.63042l.18012-.41427h.97265l.18012.41427h.64843l-.93662-2.1074zm-.66644 1.2068.28819-.68445.28819.68445z"/><path d="m12.75515 7.23382.52235.57638v-1.15276z"/></g></svg>