<svg viewBox="0 0 16 12" xmlns="http://www.w3.org/2000/svg" xmlns:xlink="http://www.w3.org/1999/xlink"><symbol id="a" viewBox="0 0 15.5 11.5"><path d="m1.49974 1.50439h12.5v8.5h-12.5z" fill="#fff"/><path d="m12.17919.25h-10.67919c-.69036 0-1.25.55964-1.25 1.25v8.5c0 .69036.55964 1.25 1.25 1.25h.30289" fill="none" stroke="#a1a5b0" stroke-linecap="round" stroke-linejoin="round" stroke-width=".5"/><path d="m13.69711.25h.30289c.69036 0 1.25.55964 1.25 1.25v8.5c0 .69036-.55964 1.25-1.25 1.25h-10.67919" fill="none" stroke="#a1a5b0" stroke-linecap="round" stroke-linejoin="round" stroke-width=".5"/></symbol><mask id="b" height="6.20258" maskUnits="userSpaceOnUse" width="7.2198" x="4.6401" y="2.89871"><path d="m4.6401 2.89888h7.2198v6.20238h-7.2198z" fill="#fff" fill-rule="evenodd"/></mask><mask id="c" height="6.20258" maskUnits="userSpaceOnUse" width="6.39206" x="4.6401" y="2.89871"><path d="m4.6401 2.89888h6.39206v6.20238h-6.39206z" fill="#fff" fill-rule="evenodd"/></mask><use height="11.5" transform="translate(.25 .24793)" width="15.5" xlink:href="#a"/><g mask="url(#b)"><path d="m7.78756 9.10126c-1.72645.00787-3.14746-1.38201-3.14746-3.07425 0-1.84941 1.42101-3.12864 3.14746-3.1283h.80927c1.70593-.00034 3.26307 1.2782 3.26307 3.1283 0 1.69139-1.55714 3.07425-3.26307 3.07425z" fill="#004c97" fill-rule="evenodd"/></g><g mask="url(#c)"><path d="m7.78756 9.10126c-1.72645.00787-3.14746-1.38201-3.14746-3.07425 0-1.84941 1.42101-3.12864 3.14746-3.1283h.04532c1.70576-.00034 3.19928 1.2782 3.19928 3.1283 0 1.69139-1.49352 3.07425-3.19928 3.07425z" fill="#004c97" fill-rule="evenodd"/></g><g fill-rule="evenodd"><path d="m7.79457 3.15532c-1.57766.00051-2.85604 1.27119-2.85604 2.83927 0 1.56774 1.27838 2.83825 2.85604 2.83842 1.57783 0 2.85638-1.27068 2.8569-2.83842-.00051-1.56825-1.27923-2.83893-2.8569-2.83927" fill="#fefefe"/><path d="m7.14606 7.67333v-3.35815c-.67895.25995-1.16037.9129-1.16208 1.67942.00171.76617.4833 1.41946 1.16208 1.67873m2.45945-1.67873c-.00137-.76685-.48347-1.42066-1.16311-1.67976v3.35934c.67964-.25944 1.16174-.91256 1.16294-1.67959" fill="#004c97"/></g></svg>