<svg viewBox="0 0 16 12" xmlns="http://www.w3.org/2000/svg" xmlns:xlink="http://www.w3.org/1999/xlink"><linearGradient id="a" gradientUnits="userSpaceOnUse" x1="8.38573" x2="7.77528" y1="6.68714" y2="5.73135"><stop offset="0" stop-color="#ff9200"/><stop offset=".20983" stop-color="#ff8d00"/><stop offset=".44692" stop-color="#ff7f00"/><stop offset=".61963" stop-color="#ff7100"/><stop offset=".82041" stop-color="#ff5e00"/><stop offset="1" stop-color="#ff5200"/></linearGradient><linearGradient id="b" gradientUnits="userSpaceOnUse" x1="8.2893" x2="7.3971" y1="6.67414" y2="4.9303"><stop offset="0" stop-color="#ff7100" stop-opacity="0"/><stop offset=".02642" stop-color="#ff6d00" stop-opacity=".03322"/><stop offset=".20968" stop-color="#ff5900" stop-opacity=".24622"/><stop offset=".38857" stop-color="#ff4800" stop-opacity=".4232"/><stop offset=".55906" stop-color="#ff3b00" stop-opacity=".56095"/><stop offset=".71894" stop-color="#ff3200" stop-opacity=".65958"/><stop offset=".86417" stop-color="#ff2c00" stop-opacity=".71926"/><stop offset=".9816" stop-color="#ff2b00" stop-opacity=".74"/></linearGradient><clipPath id="c"><path d="m8.81608 5.98078c0 .48696-.39483.88168-.88174.88168-.48701 0-.88168-.39472-.88168-.88168 0-.48702.39467-.88168.88168-.88168.48691 0 .88174.39467.88174.88168z"/></clipPath><clipPath id="d"><path d="m13.72226 2.08241h-11.44452c-.22284 0-.40349.18065-.40349.40349v7.02821c0 .22284.18065.40349.40349.40349h11.44452c.22284 0 .40349-.18065.40349-.40349v-7.02822c0-.22284-.18065-.40349-.40349-.40349zm-.19931 3.9176c0 2.08934-1.69375 3.78309-3.7831 3.78309h-7.46211c-.14833 0-.26899-.12066-.26899-.26899v-7.02822c0-.14832.12066-.26899.26899-.26899h7.46212c2.08935 0 3.7831 1.69375 3.7831 3.7831z"/></clipPath><clipPath id="e"><circle cx="8.00475" cy="6" r="7.26768"/></clipPath><path d="m1.75029 1.75196h12.5v8.5h-12.5z" fill="none"/><path d="m12.42919.49793h-10.67919c-.69036 0-1.25.55965-1.25 1.25v8.5c0 .69036.55964 1.25 1.25 1.25h.30289" fill="none" stroke="#a1a5b0" stroke-linecap="round" stroke-linejoin="round" stroke-width=".5"/><path d="m13.94711.49793h.30289c.69036 0 1.25.55964 1.25 1.25v8.5c0 .69036-.55964 1.25-1.25 1.25h-10.67919" fill="none" stroke="#a1a5b0" stroke-linecap="round" stroke-linejoin="round" stroke-width=".5"/><path d="m2.00874 2.48589v7.02821c0 .14832.12067.26899.26899.26899h7.46213c2.08935 0 3.7831-1.69375 3.7831-3.78309 0-2.08936-1.69375-3.78311-3.7831-3.78311h-7.46213c-.14832 0-.26899.12067-.26899.26899z" fill="#fff"/><g fill="#261f20"><path d="m2.9181 5.14987h-.47672v1.66497h.47416c.25214 0 .43427-.05939.59407-.19221.18992-.15724.30224-.39413.30224-.63908 0-.49137-.3671-.83369-.89375-.83369zm.37933 1.2508c-.10205.09208-.2346.13228-.44438.13228h-.0872v-1.10092h.0872c.20978 0 .3371.03745.44438.13465.11237.09997.17982.25492.17982.41442 0 .15979-.06745.31965-.17982.41957z"/><path d="m3.96135 5.14987h.32471v1.66497h-.32471z"/><path d="m5.08014 5.78878c-.19488-.07211-.25212-.11967-.25212-.20959 0-.10488.10197-.18459.2419-.18459.09736 0 .17728.03999.26192.13489l.16996-.22253c-.13969-.12215-.30676-.18461-.48925-.18461-.29459 0-.5193.20463-.5193.47707 0 .2294.10466.34678.40965.45659.12708.04484.19178.07475.22447.0948.06483.04228.09741.10231.09741.17227 0 .1349-.10731.23482-.25222.23482-.15481 0-.27963-.07736-.35441-.22196l-.20978.20191c.14961.21967.32929.31697.57639.31697.33754 0 .5743-.22436.5743-.54656 0-.26467-.10946-.38432-.47893-.51948z"/><path d="m5.66149 5.98356c0 .48936.38429.86877.87882.86877.13978 0 .25944-.02746.40712-.09687v-.38235c-.12988.12989-.24487.1823-.39208.1823-.32708 0-.55924-.23711-.55924-.57429 0-.31962.23959-.57177.54419-.57177.15484 0 .27219.05519.40712.18729v-.38209c-.14253-.0723-.25975-.10223-.39949-.10223-.49198 0-.88645.38712-.88645.87125z"/><path d="m9.52244 6.26817-.44414-1.1183h-.35468l.70653 1.7078h.17478l.71927-1.7078h-.35207z"/><path d="m10.47097 6.81484h.92108v-.28189h-.59647v-.44942h.57435v-.282h-.57435v-.36949h.59647v-.28217h-.92108z"/><path d="m12.67804 5.64138c0-.31164-.21488-.49151-.58939-.49151h-.48151v1.66497h.32428v-.66882h.04249l.44947.66882h.39935l-.52423-.7014c.24473-.04974.37953-.21703.37953-.47206zm-.65161.27503h-.09502v-.50429h.10003c.20235 0 .31229.08475.31229.24681 0 .16739-.10994.25748-.3173.25748z"/><path d="m12.93683 5.23721c0-.02926-.02026-.04527-.05568-.04527h-.04708v.1468h.03498v-.05693l.04108.05693h.04282l-.04827-.06053c.02059-.00556.03214-.02062.03214-.04099zm-.06178.02005h-.00599v-.03841h.00632c.01732 0 .02637.00624.02637.01888 0 .01299-.00915.01953-.0267.01953z"/><path d="m12.88823 5.13704c-.07126 0-.12792.05691-.12792.12798 0 .0711.05731.12806.12792.12806.06941 0 .1264-.05761.1264-.12806 0-.07007-.05699-.12798-.1264-.12798zm-.00054.23318c-.05612 0-.10199-.04672-.10199-.10502 0-.05846.04544-.10515.10199-.10515.0559 0 .10134.04778.10134.10515 0 .05778-.04544.10502-.10134.10502z"/></g><path d="m8.81608 5.98056c0 .4869-.39467.88163-.88163.88163s-.88168-.39472-.88168-.88163c0-.48696.39472-.88168.88168-.88168s.88163.39472.88163.88168z" fill="url(#a)"/><path d="m8.81608 5.98056c0 .4869-.39467.88163-.88163.88163s-.88168-.39472-.88168-.88163c0-.48696.39472-.88168.88168-.88168s.88163.39472.88163.88168z" fill="url(#b)" opacity=".65"/><g clip-path="url(#c)" opacity=".5"><path d="m7.94383 5.09432c.49603.00105.90193.39705.90193.89316 0 .49487-.40354.90095-.8981.90331-.02146.0001-.04276-.00055-.06388-.00195-.4674-.03078-.83792-.41899-.83832-.89387-.00001-.01289.00025-.02572.00078-.0385.0199-.48003.41485-.86316.89758-.86215z" fill="#0c0300"/><path d="m7.95042 5.10452c.49541.00211.90447.39137.90447.88687 0 .49298-.40435.90252-.8968.90724-.02139.00021-.04264-.00035-.06371-.00165-.46788-.02873-.84044-.41606-.84124-.8906-.00002-.01285.00023-.02565.00075-.0384.01959-.48125.41496-.86547.89653-.86346z" fill="#170600"/><path d="m7.95702 5.11472c.49479.00316.90702.38569.90702.88058 0 .49109-.40516.90408-.89551.91116-.02132.00031-.04251-.00014-.06355-.00135-.46836-.02668-.84296-.41314-.84416-.88733-.00003-.01281.00021-.02557.00072-.0383.01927-.48247.41507-.86778.89548-.86476z" fill="#230a00"/><path d="m7.96362 5.12493c.49417.00421.90956.38001.90956.87429 0 .4892-.40597.90564-.89421.91509-.02125.00042-.04238.00006-.06338-.00106-.46884-.02463-.84549-.41022-.84708-.88406-.00004-.01277.00019-.0255.00069-.0382.01896-.48369.41518-.8701.89442-.86607z" fill="#2f0d00"/><path d="m7.97021 5.13513c.49355.00526.9121.37432.9121.86801 0 .4873-.40677.9072-.89292.91901-.02117.00052-.04225.00026-.06321-.00076-.46931-.02257-.84801-.4073-.85-.88079-.00005-.01272.00017-.02542.00066-.03809.01865-.48491.41528-.87241.89337-.86738z" fill="#3a1000"/><path d="m7.97681 5.14534c.49293.00632.91464.36864.91464.86172 0 .48541-.40758.90877-.89163.92293-.0211.00062-.04213.00047-.06305-.00046-.46979-.02052-.85053-.40437-.85292-.87752-.00006-.01268.00015-.02535.00063-.03799.01834-.48613.41539-.87472.89232-.86868z" fill="#461300"/><path d="m7.98341 5.15554c.49231.00737.91719.36296.91719.85543 0 .48352-.40839.91033-.89033.92686-.02103.00073-.042.00067-.06288-.00016-.47027-.01847-.85305-.40145-.85584-.87425-.00007-.01264.00013-.02527.0006-.03789.01802-.48735.4155-.87703.89127-.86999z" fill="#521600"/><path d="m7.99 5.16575c.49169.00842.91973.35728.91973.84914 0 .48163-.4092.91189-.88904.93078-.02096.00083-.04187.00088-.06271.00013-.47075-.01642-.85557-.39853-.85875-.87097-.00008-.0126.0001-.0252.00056-.03779.01771-.48857.41561-.87934.89021-.87129z" fill="#5e1a00"/><path d="m7.9966 5.17595c.49107.00947.92227.3516.92227.84285 0 .47973-.41.91346-.88774.93471-.02088.00094-.04174.00108-.06255.00043-.47123-.01437-.85809-.39561-.86167-.8677-.00009-.01256.00008-.02512.00053-.03769.0174-.48979.41572-.88166.88916-.8726z" fill="#691d00"/><path d="m8.0032 5.18616c.49045.01053.92481.34592.92481.83657 0 .47784-.41081.91502-.88645.93863-.02081.00104-.04161.00129-.06238.00073-.4717-.01231-.86061-.39268-.86459-.86443-.0001-.01252.00006-.02505.0005-.03759.01708-.49101.41582-.88397.88811-.8739z" fill="#752000"/><path d="m8.00979 5.19636c.48983.01158.92735.34023.92735.83028 0 .47595-.41162.91658-.88516.94255-.02074.00114-.04149.00149-.06221.00103-.47218-.01026-.86313-.38976-.86751-.86116-.00011-.01247.00004-.02497.00047-.03749.01677-.49223.41593-.88628.88706-.87521z" fill="#812300"/><path d="m8.01639 5.20657c.48921.01263.9299.33455.9299.82399 0 .47406-.41243.91814-.88386.94648-.02067.00125-.04136.00169-.06205.00132-.47266-.00821-.86565-.38684-.87043-.85789-.00012-.01243.00002-.0249.00044-.03739.01646-.49345.41604-.88859.886-.87651z" fill="#8c2600"/><path d="m8.02299 5.21677c.48859.01369.93244.32887.93244.8177 0 .47216-.41324.91971-.88257.9504-.0206.00135-.04123.0019-.06188.00162-.47314-.00616-.86818-.38392-.87335-.85462-.00014-.01239 0-.02482.00041-.03729.01614-.49467.41615-.8909.88495-.87782z" fill="#982900"/><path d="m8.02958 5.22698c.48797.01474.93498.32319.93498.81141 0 .47027-.41404.92127-.88128.95433-.02052.00145-.0411.0021-.06171.00192-.47362-.0041-.8707-.38099-.87627-.85135-.00015-.01235-.00002-.02475.00038-.03719.01583-.49589.41626-.89322.8839-.87913z" fill="#a42d00"/><path d="m8.03618 5.23718c.48734.01579.93752.31751.93752.80513 0 .46838-.41485.92283-.87998.95825-.02045.00156-.04098.00231-.06155.00221-.47409-.00205-.87322-.37807-.87919-.84807-.00016-.01231-.00004-.02467.00035-.03709.01552-.49711.41636-.89553.88285-.88043z" fill="#af3000"/><path d="m8.98284 6.04623c0 .48702-.45305.96469-.94007.96469-.48697 0-.89664-.395-.88179-.88179.0152-.49832.41647-.89784.88179-.88174.48672.01684.94007.31182.94007.79884z" fill="#b30"/><path d="m8.04795 5.25515c.48674.01579.93642.31701.93642.80402s-.44941.95951-.93642.95951c-.48696 0-.89571-.39498-.88179-.88179.01425-.49761.41512-.89683.88179-.88174z" fill="#bf4010" opacity=".9375"/><path d="m8.05312 5.2629c.48676.01474.93278.32219.93278.8092s-.44576.95432-.93278.95432c-.48696 0-.89478-.39497-.88179-.88179.0133-.4969.41376-.89583.88179-.88174z" fill="#c34d20" opacity=".875"/><path d="m8.05829 5.27066c.48678.01369.92913.32738.92913.81438s-.44211.94914-.92913.94914c-.48696 0-.89385-.39496-.88178-.88179.01235-.49619.41241-.89482.88178-.88174z" fill="#c85930" opacity=".8125"/><path d="m8.06347 5.27842c.4868.01263.92548.33256.92548.81956s-.43847.94396-.92548.94396c-.48696 0-.89292-.39494-.88178-.88179.0114-.49548.41105-.89381.88178-.88174z" fill="#cc6640" opacity=".75"/><path d="m8.06864 5.28618c.48682.01158.92184.33775.92184.82474s-.43482.93878-.92184.93878c-.48696 0-.89199-.39493-.88178-.88179.01045-.49477.40969-.89281.88178-.88174z" fill="#d07350" opacity=".6875"/><path d="m8.07381 5.29394c.48683.01053.91819.34293.91819.82993s-.43118.9336-.91819.9336c-.48696 0-.89105-.39491-.88177-.88179.0095-.49406.40834-.8918.88177-.88174z" fill="#d48060" opacity=".625"/><path d="m8.07899 5.3017c.48685.00947.91455.34812.91455.83511 0 .48702-.42753.92842-.91455.92842-.48696 0-.89012-.3949-.88177-.88179.00855-.49335.40698-.8908.88177-.88174z" fill="#d98c70" opacity=".5625"/><path d="m8.08416 5.30946c.48687.00842.9109.3533.9109.84029 0 .48702-.42389.92324-.9109.92324-.48696 0-.88919-.39489-.88177-.88179.0076-.49264.40563-.88979.88177-.88174z" fill="#dd9980" opacity=".5"/><path d="m8.08933 5.31722c.48689.00737.90726.35849.90726.84547 0 .48702-.42024.91806-.90726.91806-.48696 0-.88826-.39487-.88176-.88179.00665-.49193.40427-.88878.88176-.88174z" fill="#e1a68f" opacity=".4375"/><path d="m8.09451 5.32497c.48691.00632.90361.36367.90361.85065 0 .48702-.4166.91287-.90361.91287-.48696 0-.88733-.39486-.88176-.88179.0057-.49122.40291-.88778.88176-.88174z" fill="#e5b39f" opacity=".375"/><path d="m8.09968 5.33273c.48692.00526.89997.36885.89997.85583 0 .48702-.41295.90769-.89997.90769-.48696 0-.8864-.39484-.88176-.88179.00475-.49051.40156-.88677.88176-.88174z" fill="#eabfaf" opacity=".3125"/><path d="m8.10485 5.34049c.48694.00421.89632.37404.89632.86101 0 .48702-.4093.90251-.89632.90251-.48696 0-.88546-.39483-.88175-.88179.0038-.4898.4002-.88576.88175-.88174z" fill="#eeccbf" opacity=".25"/><path d="m8.11003 5.34825c.48696.00316.89267.37922.89267.86619 0 .48702-.40566.89733-.89267.89733-.48696 0-.88453-.39481-.88175-.88179.00285-.48909.39885-.88476.88175-.88174z" fill="#f2d9cf" opacity=".1875"/><path d="m8.1152 5.35601c.48698.00211.88903.38441.88903.87138 0 .48702-.40201.89215-.88903.89215-.48696 0-.8836-.3948-.88175-.88179.0019-.48838.39749-.88375.88175-.88174z" fill="#f7e6df" opacity=".125"/><path d="m8.12037 5.36377c.487.00105.88538.38959.88538.87656 0 .48702-.39837.88697-.88538.88697-.48696 0-.88267-.39479-.88174-.88179.00095-.48767.39613-.88274.88174-.88174z" fill="#fbf2ef" opacity=".0625"/><path d="m9.00728 6.25326c0 .48702-.39472.88179-.88174.88179-.48696 0-.88174-.39477-.88174-.88179 0-.48696.39478-.88174.88174-.88174.48702 0 .88174.39478.88174.88174z" fill="#fff" opacity="0"/></g><g clip-path="url(#d)"><g clip-path="url(#e)"><path d="m.73707-1.26768h14.53537v14.53536h-14.53537z" fill="#e04e15" transform="matrix(.86602523 -.5000003 .5000003 .86602523 -1.92757 4.80623)"/><path d="m.88837-1.00562h14.53537v14.53536h-14.53537z" fill="#e04f15" transform="matrix(.86602523 -.5000003 .5000003 .86602523 -2.03833 4.91699)"/><path d="m1.03967-.74356h14.53537v14.53536h-14.53537z" fill="#e15015" transform="matrix(.86602523 -.5000003 .5000003 .86602523 -2.14909 5.02774)"/><path d="m1.19096-.48151h14.53537v14.53536h-14.53537z" fill="#e15115" transform="matrix(.86602523 -.5000003 .5000003 .86602523 -2.25984 5.1385)"/><path d="m1.34226-.21945h14.53537v14.53536h-14.53537z" fill="#e25215" transform="matrix(.86602523 -.5000003 .5000003 .86602523 -2.3706 5.24926)"/><path d="m1.49356.04261h14.53537v14.53536h-14.53537z" fill="#e25316" transform="matrix(.86602523 -.5000003 .5000003 .86602523 -2.48136 5.36002)"/><path d="m1.64486.30466h14.53537v14.53536h-14.53537z" fill="#e35416" transform="matrix(.86602523 -.5000003 .5000003 .86602523 -2.59212 5.47078)"/><path d="m1.79616.56672h14.53537v14.53536h-14.53537z" fill="#e35516" transform="matrix(.86602523 -.5000003 .5000003 .86602523 -2.70288 5.58154)"/><path d="m1.94746.82878h14.53537v14.53536h-14.53537z" fill="#e35616" transform="matrix(.86602523 -.5000003 .5000003 .86602523 -2.81363 5.69229)"/><path d="m2.09876 1.09083h14.53537v14.53536h-14.53537z" fill="#e45716" transform="matrix(.86602523 -.5000003 .5000003 .86602523 -2.92439 5.80305)"/><path d="m2.25005 1.35289h14.53537v14.53536h-14.53537z" fill="#e45716" transform="matrix(.86602523 -.5000003 .5000003 .86602523 -3.03515 5.91381)"/><path d="m2.40135 1.61495h14.53537v14.53536h-14.53537z" fill="#e55816" transform="matrix(.86602523 -.5000003 .5000003 .86602523 -3.14591 6.02457)"/><path d="m2.55265 1.877h14.53537v14.53536h-14.53537z" fill="#e55916" transform="matrix(.86602523 -.5000003 .5000003 .86602523 -3.25667 6.13533)"/><path d="m2.70395 2.13906h14.53537v14.53536h-14.53537z" fill="#e55a16" transform="matrix(.86602523 -.5000003 .5000003 .86602523 -3.36743 6.24609)"/><path d="m2.85525 2.40112h14.53537v14.53536h-14.53537z" fill="#e65b16" transform="matrix(.86602523 -.5000003 .5000003 .86602523 -3.47818 6.35684)"/><path d="m3.00655 2.66317h14.53537v14.53536h-14.53537z" fill="#e65c17" transform="matrix(.86602523 -.5000003 .5000003 .86602523 -3.58894 6.4676)"/><path d="m3.15785 2.92523h14.53537v14.53536h-14.53537z" fill="#e75d17" transform="matrix(.86602523 -.5000003 .5000003 .86602523 -3.6997 6.57836)"/><path d="m3.30914 3.18729h14.53537v14.53536h-14.53537z" fill="#e75e17" transform="matrix(.86602523 -.5000003 .5000003 .86602523 -3.81046 6.68912)"/><path d="m3.46044 3.44934h14.53537v14.53536h-14.53537z" fill="#e85f17" transform="matrix(.86602523 -.5000003 .5000003 .86602523 -3.92122 6.79988)"/><path d="m3.61174 3.7114h14.53537v14.53536h-14.53537z" fill="#e86017" transform="matrix(.86602523 -.5000003 .5000003 .86602523 -4.03197 6.91063)"/><path d="m3.67023 3.81271h14.53537v14.53536h-14.53537z" fill="#e86117" transform="matrix(.86602523 -.5000003 .5000003 .86602523 -4.07479 6.95345)"/><path d="m3.72872 3.91401h14.53537v14.53536h-14.53537z" fill="#e96217" transform="matrix(.86602523 -.5000003 .5000003 .86602523 -4.11761 6.99627)"/><path d="m3.78721 4.01532h14.53537v14.53536h-14.53537z" fill="#e96317" transform="matrix(.86602523 -.5000003 .5000003 .86602523 -4.16043 7.03909)"/><path d="m3.8457 4.11663h14.53537v14.53536h-14.53537z" fill="#e96418" transform="matrix(.86602523 -.5000003 .5000003 .86602523 -4.20324 7.0819)"/><path d="m3.90419 4.21793h14.53537v14.53536h-14.53537z" fill="#e96518" transform="matrix(.86602523 -.5000003 .5000003 .86602523 -4.24606 7.12472)"/><path d="m3.96268 4.31924h14.53537v14.53536h-14.53537z" fill="#ea6618" transform="matrix(.86602523 -.5000003 .5000003 .86602523 -4.28888 7.16754)"/><path d="m4.02117 4.42055h14.53537v14.53536h-14.53537z" fill="#ea6718" transform="matrix(.86602523 -.5000003 .5000003 .86602523 -4.3317 7.21036)"/><path d="m4.07966 4.52186h14.53537v14.53536h-14.53537z" fill="#ea6818" transform="matrix(.86602523 -.5000003 .5000003 .86602523 -4.37451 7.25317)"/><path d="m4.13815 4.62316h14.53537v14.53536h-14.53537z" fill="#ea6918" transform="matrix(.86602523 -.5000003 .5000003 .86602523 -4.41733 7.29599)"/><path d="m4.19664 4.72447h14.53537v14.53536h-14.53537z" fill="#eb6a18" transform="matrix(.86602523 -.5000003 .5000003 .86602523 -4.46015 7.33881)"/><path d="m4.25513 4.82578h14.53537v14.53536h-14.53537z" fill="#eb6b19" transform="matrix(.86602523 -.5000003 .5000003 .86602523 -4.50297 7.38163)"/><path d="m4.31362 4.92709h14.53537v14.53536h-14.53537z" fill="#eb6c19" transform="matrix(.86602523 -.5000003 .5000003 .86602523 -4.54578 7.42444)"/><path d="m4.37211 5.02839h14.53537v14.53536h-14.53537z" fill="#eb6d19" transform="matrix(.86602523 -.5000003 .5000003 .86602523 -4.5886 7.46726)"/><path d="m4.4306 5.1297h14.53537v14.53536h-14.53537z" fill="#ec6e19" transform="matrix(.86602523 -.5000003 .5000003 .86602523 -4.63142 7.51008)"/><path d="m4.48909 5.23101h14.53537v14.53536h-14.53537z" fill="#ec6f19" transform="matrix(.86602523 -.5000003 .5000003 .86602523 -4.67424 7.5529)"/><path d="m4.54758 5.33231h14.53537v14.53536h-14.53537z" fill="#ec7019" transform="matrix(.86602523 -.5000003 .5000003 .86602523 -4.71705 7.59571)"/><path d="m4.60607 5.43362h14.53537v14.53536h-14.53537z" fill="#ec7119" transform="matrix(.86602523 -.5000003 .5000003 .86602523 -4.75987 7.63853)"/><path d="m4.66456 5.53493h14.53537v14.53536h-14.53537z" fill="#ed7219" transform="matrix(.86602523 -.5000003 .5000003 .86602523 -4.80269 7.68135)"/><path d="m4.72305 5.63624h14.53537v14.53536h-14.53537z" fill="#ed731a" transform="matrix(.86602523 -.5000003 .5000003 .86602523 -4.84551 7.72417)"/><path d="m4.78154 5.73754h14.53537v14.53536h-14.53537z" fill="#ed741a" transform="matrix(.86602523 -.5000003 .5000003 .86602523 -4.88832 7.76698)"/><path d="m4.84003 5.83885h14.53537v14.53536h-14.53537z" fill="#ed751a" transform="matrix(.86602523 -.5000003 .5000003 .86602523 -4.93114 7.8098)"/><path d="m4.89852 5.94016h14.53537v14.53536h-14.53537z" fill="#ee761a" transform="matrix(.86602523 -.5000003 .5000003 .86602523 -4.97396 7.85262)"/><path d="m4.95701 6.04146h14.53537v14.53536h-14.53537z" fill="#ee771a" transform="matrix(.86602523 -.5000003 .5000003 .86602523 -5.01678 7.89544)"/><path d="m5.0155 6.14277h14.53537v14.53536h-14.53537z" fill="#ee781a" transform="matrix(.86602523 -.5000003 .5000003 .86602523 -5.05959 7.93825)"/><path d="m5.07399 6.24408h14.53537v14.53536h-14.53537z" fill="#ef791a" transform="matrix(.86602523 -.5000003 .5000003 .86602523 -5.10241 7.98107)"/><path d="m5.13247 6.34539h14.53537v14.53536h-14.53537z" fill="#ef7a1b" transform="matrix(.86602523 -.5000003 .5000003 .86602523 -5.14523 8.02389)"/><path d="m5.19096 6.44669h14.53537v14.53536h-14.53537z" fill="#ef7b1b" transform="matrix(.86602523 -.5000003 .5000003 .86602523 -5.18805 8.06671)"/><path d="m5.24945 6.548h14.53537v14.53536h-14.53537z" fill="#ef7c1b" transform="matrix(.86602523 -.5000003 .5000003 .86602523 -5.23086 8.10952)"/><path d="m5.30794 6.64931h14.53537v14.53536h-14.53537z" fill="#f07d1b" transform="matrix(.86602523 -.5000003 .5000003 .86602523 -5.27368 8.15234)"/><path d="m5.36643 6.75061h14.53537v14.53536h-14.53537z" fill="#f07e1b" transform="matrix(.86602523 -.5000003 .5000003 .86602523 -5.3165 8.19516)"/><path d="m5.42492 6.85192h14.53537v14.53536h-14.53537z" fill="#f07f1b" transform="matrix(.86602523 -.5000003 .5000003 .86602523 -5.35932 8.23798)"/><path d="m5.48341 6.95323h14.53537v14.53536h-14.53537z" fill="#f0801b" transform="matrix(.86602523 -.5000003 .5000003 .86602523 -5.40213 8.28079)"/><path d="m5.5419 7.05454h14.53537v14.53536h-14.53537z" fill="#f1801c" transform="matrix(.86602523 -.5000003 .5000003 .86602523 -5.44495 8.32361)"/><path d="m5.60039 7.15584h14.53537v14.53536h-14.53537z" fill="#f1811c" transform="matrix(.86602523 -.5000003 .5000003 .86602523 -5.48777 8.36643)"/><path d="m5.65888 7.25715h14.53537v14.53536h-14.53537z" fill="#f1821c" transform="matrix(.86602523 -.5000003 .5000003 .86602523 -5.53059 8.40925)"/><path d="m5.71737 7.35846h14.53537v14.53536h-14.53537z" fill="#f1831c" transform="matrix(.86602523 -.5000003 .5000003 .86602523 -5.5734 8.45207)"/><path d="m5.77586 7.45976h14.53537v14.53536h-14.53537z" fill="#f2841c" transform="matrix(.86602523 -.5000003 .5000003 .86602523 -5.61622 8.49488)"/><path d="m5.83435 7.56107h14.53537v14.53536h-14.53537z" fill="#f2851c" transform="matrix(.86602523 -.5000003 .5000003 .86602523 -5.65904 8.5377)"/><path d="m5.89284 7.66238h14.53537v14.53536h-14.53537z" fill="#f2861c" transform="matrix(.86602523 -.5000003 .5000003 .86602523 -5.70186 8.58052)"/><path d="m5.95133 7.76369h14.53537v14.53536h-14.53537z" fill="#f2871d" transform="matrix(.86602523 -.5000003 .5000003 .86602523 -5.74467 8.62334)"/><path d="m6.00982 7.86499h14.53537v14.53536h-14.53537z" fill="#f3881d" transform="matrix(.86602523 -.5000003 .5000003 .86602523 -5.78749 8.66615)"/><path d="m6.06831 7.9663h14.53537v14.53536h-14.53537z" fill="#f3891d" transform="matrix(.86602523 -.5000003 .5000003 .86602523 -5.83031 8.70897)"/><path d="m6.1268 8.06761h14.53537v14.53536h-14.53537z" fill="#f38a1d" transform="matrix(.86602523 -.5000003 .5000003 .86602523 -5.87313 8.75179)"/><path d="m6.18529 8.16891h14.53537v14.53536h-14.53537z" fill="#f48b1d" transform="matrix(.86602523 -.5000003 .5000003 .86602523 -5.91594 8.79461)"/><path d="m6.24378 8.27022h14.53537v14.53536h-14.53537z" fill="#f48c1d" transform="matrix(.86602523 -.5000003 .5000003 .86602523 -5.95876 8.83742)"/><path d="m6.30227 8.37153h14.53537v14.53536h-14.53537z" fill="#f48d1d" transform="matrix(.86602523 -.5000003 .5000003 .86602523 -6.00158 8.88024)"/><path d="m6.36076 8.47284h14.53537v14.53536h-14.53537z" fill="#f48e1e" transform="matrix(.86602523 -.5000003 .5000003 .86602523 -6.0444 8.92306)"/><path d="m6.41925 8.57414h14.53537v14.53536h-14.53537z" fill="#f58f1e" transform="matrix(.86602523 -.5000003 .5000003 .86602523 -6.08721 8.96588)"/><path d="m6.47774 8.67545h14.53537v14.53536h-14.53537z" fill="#f5901e" transform="matrix(.86602523 -.5000003 .5000003 .86602523 -6.13003 9.00869)"/><path d="m6.53623 8.77676h14.53537v14.53536h-14.53537z" fill="#f5911e" transform="matrix(.86602523 -.5000003 .5000003 .86602523 -6.17285 9.05151)"/><path d="m6.59472 8.87807h14.53537v14.53536h-14.53537z" fill="#f5921e" transform="matrix(.86602523 -.5000003 .5000003 .86602523 -6.21567 9.09433)"/><path d="m6.65321 8.97937h14.53537v14.53536h-14.53537z" fill="#f6931e" transform="matrix(.86602523 -.5000003 .5000003 .86602523 -6.25848 9.13715)"/><path d="m6.7117 9.08068h14.53537v14.53536h-14.53537z" fill="#f6941e" transform="matrix(.86602523 -.5000003 .5000003 .86602523 -6.3013 9.17996)"/><path d="m6.77019 9.18199h14.53537v14.53536h-14.53537z" fill="#f6951e" transform="matrix(.86602523 -.5000003 .5000003 .86602523 -6.34412 9.22278)"/><path d="m6.82868 9.28329h14.53537v14.53536h-14.53537z" fill="#f6961f" transform="matrix(.86602523 -.5000003 .5000003 .86602523 -6.38694 9.2656)"/><path d="m6.88717 9.3846h14.53537v14.53536h-14.53537z" fill="#f7971f" transform="matrix(.86602523 -.5000003 .5000003 .86602523 -6.42975 9.30842)"/><path d="m6.94566 9.48591h14.53537v14.53536h-14.53537z" fill="#f7981f" transform="matrix(.86602523 -.5000003 .5000003 .86602523 -6.47257 9.35123)"/><path d="m7.00415 9.58722h14.53537v14.53536h-14.53537z" fill="#f7991f" transform="matrix(.86602523 -.5000003 .5000003 .86602523 -6.51539 9.39405)"/><path d="m7.06264 9.68852h14.53537v14.53536h-14.53537z" fill="#f79a1f" transform="matrix(.86602523 -.5000003 .5000003 .86602523 -6.55821 9.43687)"/><path d="m7.12113 9.78983h14.53537v14.53536h-14.53537z" fill="#f89b1f" transform="matrix(.86602523 -.5000003 .5000003 .86602523 -6.60102 9.47969)"/><path d="m7.17962 9.89114h14.53537v14.53536h-14.53537z" fill="#f89c1f" transform="matrix(.86602523 -.5000003 .5000003 .86602523 -6.64384 9.5225)"/><path d="m7.23811 9.99244h14.53537v14.53536h-14.53537z" fill="#f89d20" transform="matrix(.86602523 -.5000003 .5000003 .86602523 -6.68666 9.56532)"/><path d="m7.2966 10.09375h14.53537v14.53536h-14.53537z" fill="#f89e20" transform="matrix(.86602523 -.5000003 .5000003 .86602523 -6.72948 9.60814)"/><path d="m7.35509 10.19506h14.53537v14.53536h-14.53537z" fill="#f99f20" transform="matrix(.86602523 -.5000003 .5000003 .86602523 -6.77229 9.65096)"/><path d="m7.41358 10.29637h14.53537v14.53536h-14.53537z" fill="#f9a020" transform="matrix(.86602523 -.5000003 .5000003 .86602523 -6.81511 9.69377)"/></g></g></svg>