<svg viewBox="0 0 16 12" xmlns="http://www.w3.org/2000/svg" xmlns:xlink="http://www.w3.org/1999/xlink"><symbol id="a" viewBox="0 0 15.5 11.5"><path d="m1.49974 1.50439h12.5v8.5h-12.5z" fill="#fff"/><path d="m12.17919.25h-10.67919c-.69036 0-1.25.55964-1.25 1.25v8.5c0 .69036.55964 1.25 1.25 1.25h.30289" fill="none" stroke="#a1a5b0" stroke-linecap="round" stroke-linejoin="round" stroke-width=".5"/><path d="m13.69711.25h.30289c.69036 0 1.25.55964 1.25 1.25v8.5c0 .69036-.55964 1.25-1.25 1.25h-10.67919" fill="none" stroke="#a1a5b0" stroke-linecap="round" stroke-linejoin="round" stroke-width=".5"/></symbol><linearGradient id="b" gradientTransform="matrix(1.125 0 0 1.125 6.13005 3.48348)" gradientUnits="userSpaceOnUse" x1="3.00368" x2="5.16736" y1="2.57405" y2="2.57405"><stop offset="0" stop-color="#007f49"/><stop offset=".28831" stop-color="#1f9248"/><stop offset=".7632" stop-color="#4fae46"/><stop offset="1" stop-color="#62ba46"/></linearGradient><linearGradient id="c" x1="3.00365" x2="5.16739" xlink:href="#b" y1="2.23689" y2="2.23689"/><linearGradient id="d" x1="3.00366" x2="5.16722" xlink:href="#b" y1="1.86989" y2="1.86989"/><linearGradient id="e" gradientUnits="userSpaceOnUse" x1="4.05981375" x2="6.53159625" y1="5.99998125" y2="5.99998125"><stop offset="0" stop-color="#337"/><stop offset=".07143" stop-color="#2e387c"/><stop offset=".69127" stop-color="#0d65ac"/><stop offset="1" stop-color="#0077bf"/></linearGradient><linearGradient id="f" gradientUnits="userSpaceOnUse" x1="6.77151375" x2="9.17214" y1="5.99998125" y2="5.99998125"><stop offset="0" stop-color="#743237"/><stop offset=".40057" stop-color="#a9263d"/><stop offset=".80106" stop-color="#d91b43"/><stop offset="1" stop-color="#ec1846"/></linearGradient><path d="m-8-10h32v32h-32z"/><use height="11.5" transform="translate(.25 .24793)" width="15.5" xlink:href="#a"/><path d="m12.42919 8.03416c0 .76096-.61695 1.37797-1.37797 1.37797h-7.48041v-5.44632c0-.76099.61695-1.37794 1.37805-1.37794h7.48032v5.44629z" fill="#fff" opacity="0"/><path d="m9.99028 6.63884h.56975c.0179 0 .05178-.00282.06793-.00638.10938-.02366.20044-.12077.20044-.25301 0-.1323-.09106-.22966-.20044-.25331-.01614-.00352-.05002-.0064-.06793-.0064h-.56975z" fill="url(#b)"/><path d="m10.49343 3.04721c-.54357 0-.98428.44068-.98428.98419v1.0223h1.39273c.03228 0 .07178.00225.09641.00353.31519.01581.54764.17773.54764.45874 0 .22095-.15888.40962-.44803.4521v.01109c.31942.02216.56397.19792.56397.47491 0 .29959-.26842.49222-.6262.49222h-1.52652v2.00647h1.44364c.54357 0 .98425-.44071.98425-.98425v-4.9213h-1.44362z" fill="url(#c)"/><path d="m10.76093 5.58715c0-.13002-.09106-.21718-.19816-.2353-.01001-.00171-.03727-.00434-.05604-.00434h-.51644v.47919h.51644c.01877 0 .04604-.00268.05604-.00439.1071-.01812.19816-.10522.19816-.23516z" fill="url(#d)"/><path d="m5.04725 3.04721c-.54363 0-.98428.44068-.98428.98419v2.43071c.27604.13373.56123.22084.85149.22084.34031 0 .52727-.20771.52727-.48726v-1.14193h.84653v1.14193c0 .44664-.27417.80488-1.21499.80488-.56622 0-1.01029-.1221-1.01029-.1221v2.07429h1.44359c.54357 0 .98428-.44071.98428-.98425v-4.9213h-1.44359z" fill="url(#e)"/><path d="m7.77034 3.04721c-.5436 0-.98425.44068-.98425.98419v1.28858c.24938-.21392.68064-.34758 1.38131-.31603.37506.01671.77279.1173.77279.1173v.41675c-.19906-.10088-.43778-.19434-.74537-.21764-.53174-.04018-.85176.2197-.85176.67969 0 .45988.32002.7197.85176.67934.30759-.02308.54946-.11903.74537-.21734v.41651s-.39774.10056-.77279.1176c-.70067.03152-1.13193-.10213-1.38131-.31606v2.27267h1.44359c.54354 0 .98422-.44071.98422-.98425v-4.92131z" fill="url(#f)"/></svg>