<svg viewBox="0 0 16 12" xmlns="http://www.w3.org/2000/svg" xmlns:xlink="http://www.w3.org/1999/xlink"><symbol id="a" viewBox="0 0 15.5 11.5"><path d="m1.49974 1.50439h12.5v8.5h-12.5z" fill="#fff"/><path d="m12.17919.25h-10.67919c-.69036 0-1.25.55964-1.25 1.25v8.5c0 .69036.55964 1.25 1.25 1.25h.30289" fill="none" stroke="#a1a5b0" stroke-linecap="round" stroke-linejoin="round" stroke-width=".5"/><path d="m13.69711.25h.30289c.69036 0 1.25.55964 1.25 1.25v8.5c0 .69036-.55964 1.25-1.25 1.25h-10.67919" fill="none" stroke="#a1a5b0" stroke-linecap="round" stroke-linejoin="round" stroke-width=".5"/></symbol><path d="m-8-10h32v32h-32z"/><use height="11.5" transform="translate(.25 .24793)" width="15.5" xlink:href="#a"/><path d="m1.92954 1.70244h12.14091v8.6034h-12.14091z" fill="none"/><path d="m6.74201 3.74947h2.50932v4.50933h-2.50932z" fill="#ff5f00"/><path d="m6.90135 6.00414c-.0008-.87995.40311-1.71139 1.09533-2.25466-1.24522-.97877-3.04811-.76277-4.02689.48244-.97877 1.24522-.76277 3.04811.48244 4.02689 1.04006.81751 2.50438.81751 3.54444 0-.69221-.54328-1.09613-1.37472-1.09533-2.25467z" fill="#eb001b"/><g fill="#f79e1b"><path d="m12.63656 6.00414c.00006 1.58378-1.2838 2.86774-2.86759 2.8678-.64278.00002-1.26694-.21591-1.77229-.61314 1.24522-.97914 1.46092-2.78234.48178-4.02755-.14088-.17916-.30261-.3409-.48178-.48178 1.24516-.97875 3.04799-.76278 4.02674.48237.39723.50535.61316 1.12951.61314 1.77229z"/><path d="m12.36295 7.78119v-.09232h.03722v-.01881h-.0948v.01881h.03724v.09232zm.18406 0v-.11131h-.02906l-.03342.07656-.03343-.07656h-.02908v.11131h.02052v-.08396l.03135.07239h.02128l.03135-.07257v.08415h.0205z"/></g></svg>