<svg viewBox="0 0 16 12" xmlns="http://www.w3.org/2000/svg" xmlns:xlink="http://www.w3.org/1999/xlink"><symbol id="a" viewBox="0 0 15.5 11.5"><path d="m1.49974 1.50439h12.5v8.5h-12.5z" fill="#fff"/><path d="m12.17919.25h-10.67919c-.69036 0-1.25.55964-1.25 1.25v8.5c0 .69036.55964 1.25 1.25 1.25h.30289" fill="none" stroke="#a1a5b0" stroke-linecap="round" stroke-linejoin="round" stroke-width=".5"/><path d="m13.69711.25h.30289c.69036 0 1.25.55964 1.25 1.25v8.5c0 .69036-.55964 1.25-1.25 1.25h-10.67919" fill="none" stroke="#a1a5b0" stroke-linecap="round" stroke-linejoin="round" stroke-width=".5"/></symbol><path d="m-8-10h32v32h-32z"/><use height="11.5" transform="translate(.25 .24793)" width="15.5" xlink:href="#a"/><path d="m5.09846 3.01618h2.38104c.33236 0 .53926.27097.46171.60471l-1.10866 4.75917c-.07841.33278-.41098.60375-.74348.60375h-2.38112c-.3325 0-.53919-.27097-.46164-.60375l1.10931-4.75917c.07733-.33374.40968-.60471.74284-.60471" fill="#ed171f"/><path d="m7.28143 3.01618h2.73832c.33228 0 .18249.27097.10436.60471l-1.10866 4.75917c-.07747.33278-.05313.60375-.38634.60375h-2.73803c-.33293 0-.53904-.27097-.46085-.60375l1.10816-4.75917c.07841-.33374.41062-.60471.74305-.60471" fill="#082f67"/><path d="m9.91148 3.01618h2.38068c.33257 0 .53926.27097.46142.60471l-1.10852 4.75917c-.07791.33278-.4104.60375-.74399.60375h-2.38003c-.33315 0-.53955-.27097-.46142-.60375l1.10816-4.75917c.07806-.33374.4104-.60471.74369-.60471" fill="#006a65"/><g fill="#fff"><path d="m9.51347 7.49345h.22452l.06486-.21581h-.22444zm.17966-.59564-.07711.25525s.08523-.0437.13109-.05733c.0461-.01065.11589-.01934.11589-.01934l.05464-.17857h-.22452zm.11154-.36736-.07457.24539s.0834-.03761.12913-.05014c.04617-.01196.11552-.0166.11552-.0166l.05392-.17864h-.224zm.49642 0-.2901.96016h.07791l-.06023.19858h-.07806l-.01811.0616h-.2762l.01878-.0616h-.56129l.05645-.18379h.05667l.29437-.97495.05886-.19698h.28169l-.02942.09958s.075-.05413.14617-.07262c.07117-.0187.47954-.02552.47954-.02552l-.06051.19553h-.09654z" fill-rule="evenodd"/><path d="m10.42559 6.33492h.30062l.00341.11212c-.00182.01878.01442.02776.04921.02776h.06108l-.05588.18495h-.16226c-.14081.01036-.19392-.05015-.19081-.11806z"/><path d="m10.46502 7.21262h-.28655l.0492-.16495h.32751l.04696-.15023h-.32359l.05559-.18583h.90023l-.05645.18583h-.30184l-.04726.15023h.30257l-.04979.16495h-.32764l-.05791.06943h.13277l.03226.20756c.0034.02044.00406.03384.01051.04283.00673.00768.04652.01122.06956.01122h.0403l-.06124.20205h-.10219c-.01579 0-.0392-.00137-.07123-.00304-.03094-.00267-.05291-.02058-.07334-.03043-.01878-.00936-.04681-.03211-.05326-.07075l-.03211-.20719-.14871.20437c-.04731.0642-.11131.11336-.21915.11336h-.20879l.05464-.18017h.07972c.02305 0 .04348-.00899.05834-.01681.01543-.00645.02892-.01421.04428-.03689l.21662-.30554z"/><path d="m7.32607 6.76164h.75885l-.05609.18124h-.30351l-.04718.15402h.31047l-.05661.18711h-.31018l-.07521.25104c-.00928.02783.07326.03176.10319.03176l.15552-.02146-.06232.20677h-.35011c-.02755 0-.04899-.00392-.07957-.01073-.02943-.00739-.04248-.02058-.05559-.04065-.01268-.02059-.03202-.03726-.01891-.08095l.10044-.33258h-.17227l.05711-.1903h.17328l.04602-.15402h-.17256l.05522-.18124z"/><path d="m7.83707 6.43624h.31126l-.05696.18937h-.42527l-.04623.03978c-.01957.01928-.02653.01124-.05218.02515-.02406.01218-.07471.03616-.14015.03616h-.13646l.05543-.18218h.04095c.03464 0 .0582-.0029.07008-.01059.01363-.00848.02863-.02775.0461-.05913l.07805-.14212h.30968l-.05429.10356z"/><path d="m8.43438 6.74765s.08486-.07754.23023-.10277c.03305-.00644.23995-.00433.23995-.00433l.03132-.10401h-.43817l-.06334.21111zm.41069.07921h-.43483l-.02652.08783h.37613c.04449-.00558.05363.00074.05725-.00137zm-.5631-.49194h.26524l-.03855.13342s.08356-.06675.14226-.09066c.05841-.02188.19068-.04153.19068-.04153l.42895-.00224-.14617.48686c-.0245.08356-.05312.13748-.07109.16204-.01638.02515-.0353.04616-.07284.06653-.03609.01934-.06906.03051-.09928.03355-.02848.00211-.07196.00326-.13225.00377h-.4131l-.11667.38533c-.01102.03805-.01639.05609-.00914.06631.00615.00936.02015.01971.03957.01971l.18212-.01717-.06204.21126h-.20429c-.06486 0-.11217-.00138-.14538-.00392-.03137-.00246-.06427 0-.08601-.0171-.01921-.01674-.04813-.03854-.04748-.06116.00218-.02094.01059-.05566.02414-.10312l.37135-1.23188z" fill-rule="evenodd"/><path d="m9.05509 7.12088-.02428.11697c-.01079.03638-.01984.06429-.04747.08776-.02861.02436-.06297.05009-.14262.05009l-.14691.00594-.00123.13248c-.00203.03762.00811.03363.01421.03979.00673.0063.01268.00935.01942.01144l.04631-.00209.1406-.00819-.05792.19313h-.16139c-.11304 0-.19683-.00246-.22452-.02449-.02695-.01703-.03058-.03884-.02977-.07574l.01021-.5154h.25728l-.00325.10529h.06211c.02108 0 .035-.00217.0442-.00761.00747-.00616.01334-.0142.01746-.02718l.02507-.08218h.20249z"/><path d="m5.38021 4.53663c-.00934.04145-.17443.80406-.17509.8045-.03572.15415-.06102.26466-.149.33519-.05.04102-.10834.06123-.17573.06123-.10835 0-.17198-.05391-.18278-.15624l-.00196-.03501s.03297-.2069.03334-.20777c0 0 .17335-.695.20437-.78652.00138-.00515.00203-.00769.00275-.01036-.33765.00304-.39779 0-.40163-.005-.00196.00682-.01094.05-.01094.05l-.17713.78269-.01537.06682-.02898.21705c0 .06414.01268.11697.03775.16139.08081.14131.31112.16226.44107.16226.16784 0 .32489-.03587.43113-.10052.18451-.10921.23306-.2801.27612-.4312l.01993-.07746s.17879-.72174.20936-.81566c.00087-.00515.00145-.00769.00269-.01036-.24466.00267-.31663 0-.3399-.005"/><path d="m6.36845 5.96909c-.11988-.00166-.16191-.00166-.30193.00544l-.0055-.01036c.01239-.0532.02565-.10573.03739-.1598l.01718-.07276c.02594-.11349.05137-.24545.05442-.28524.00238-.02428.01043-.08465-.05849-.08465-.02921 0-.05949.01429-.09008.02819-.01688.06037-.05117.22952-.06682.30699-.03493.1627-.03717.1811-.05261.26162l-.01008.01057c-.12356-.00166-.16617-.00166-.30822.00544l-.00673-.01174c.02385-.09682.04747-.1943.07014-.29075.05957-.26199.07356-.36235.09023-.49549l.01109-.0079c.13856-.01949.17204-.02327.32192-.05406l.01268.01414-.02254.0834c.02529-.01492.04922-.03022.07537-.04348.07067-.03479.14937-.04507.1927-.04507.06537 0 .13711.01841.16719.09421.02856.06769.00972.15124-.02768.31546l-.01936.08348c-.03848.18284-.04478.21634-.06623.34178l-.01405.01057z"/><path d="m6.8548 5.96909c-.07197-.00037-.11835-.00166-.16379-.00037-.04507.00037-.089.00269-.15597.00581l-.00406-.00581-.00449-.00594c.01834-.06935.02871-.09363.03754-.11827.0092-.02435.01804-.04914.03392-.11943.02095-.09167.03385-.15582.04311-.2119.00957-.05443.01501-.10052.02183-.15415l.00564-.00421.00595-.00515c.07167-.01021.11748-.0168.16379-.02398.0471-.00681.09442-.01601.16871-.03007l.0029.00652.00203.00653c-.01384.05674-.0279.11341-.04137.17118-.01327.0574-.02726.11378-.03979.17089-.02711.12073-.03768.16553-.04421.1977-.00594.0308-.00789.04748-.01855.11009l-.00652.00565-.00666.00493z"/><path d="m7.61756 5.54354c-.0066.03095-.03355.14655-.07067.19575-.02557.03602-.05601.05784-.08972.05784-.00948 0-.06855 0-.06971-.08791-.00073-.0432.00833-.08821.01913-.13611.03152-.13951.06884-.25647.16357-.25647.07472 0 .07965.08704.0474.2269m.313.01342c.04203-.18422.00978-.27032-.03131-.32301-.06269-.07957-.17263-.1053-.28698-.1053-.06863 0-.23227.00696-.36026.12516-.09146.0848-.13428.20039-.16001.31083-.02573.11248-.05551.3159.1311.39135.05791.02428.14038.03117.19409.03117.13676 0 .27698-.0377.38192-.14944.08182-.09074.11878-.22561.13146-.28075"/><path d="m10.85832 5.98156c-.14436-.0013-.18595-.0013-.31952.00435l-.00893-.0108c.03646-.1374.07306-.27438.10523-.41315.04182-.18025.05139-.25676.06544-.36214l.0108-.00898c.14335-.02059.18314-.02624.33272-.05385l.00464.01225c-.02732.11299-.05479.22611-.08089.33953-.05515.23762-.07521.35844-.09631.48258l-.01319.01022z"/><path d="m10.64128 5.55948c-.00696.02943-.03407.14639-.07118.19473-.02449.03472-.08282.05661-.11631.05661-.00949 0-.06819 0-.0703-.08697-.00043-.04282.00856-.08783.01971-.13616.03152-.13654.06877-.25307.16358-.25307.07478 0 .10667.08486.0745.22487m.28575.01369c.04196-.18328-.12697-.01615-.15394-.07667-.04152-.09421-.0155-.2856-.18204-.34938-.06385-.02485-.2143.00732-.34257.12459-.09087.0845-.13415.19871-.15958.30901-.02587.11095-.05551.31395.13008.38678.05863.02486.11248.03204.16596.02993.18676-.01022.32909-.29191.43425-.40366.08124-.08827.09553.03326.10784-.02059"/><path d="m8.74854 5.96909c-.12009-.00166-.16081-.00166-.30191.00544l-.00508-.01036c.01189-.0532.02552-.10573.03805-.1598l.01681-.07276c.02602-.11349.05139-.24545.05421-.28524.00238-.02428.01036-.08465-.05804-.08465-.02965 0-.05958.01429-.09038.02819-.01667.06037-.05101.22952-.06755.30699-.0342.1627-.03645.1811-.05196.26162l-.01028.01057c-.12343-.00166-.16582-.00166-.30757.00544l-.00645-.01174c.02362-.09682.04682-.1943.06951-.29075.05949-.26199.07355-.36235.09008-.49549l.01117-.0079c.1385-.01949.17211-.02327.32198-.05406l.01181.01414-.02166.0834c.02456-.01492.04964-.03022.07521-.04348.07017-.03479.14951-.04507.19191-.04507.06565 0 .13748.01841.16842.09421.02812.06769.00913.15124-.02863.31546l-.01884.08348c-.0392.18284-.0453.21634-.06603.34178l-.01478.01057z"/><path d="m9.78626 4.53526c-.00058 0-.09951.00137-.09951.00137-.25887.0029-.36264.00167-.40519-.00349-.00442.01892-.01094.05262-.01094.05262l-.09247.43035s-.22169.914-.23219.95691c.22582-.00247.31857-.00247.35721.00145.00884-.04291.06168-.29815.06168-.29815s.04507-.18756.04776-.19444c0 0 .01392-.01921.02834-.02689h.02058c.19465 0 .41511 0 .58737-.12712.11704-.08704.19786-.21553.23344-.37141.00956-.03834.01622-.08421.01622-.12966 0-.05978-.01202-.11893-.04703-.1653-.08783-.12319-.26256-.12487-.46526-.12624m.12965.44751c-.02116.09494-.08277.17552-.16241.21444-.06594.03305-.14603.0355-.22894.0355h-.05333l.00398-.02129s.09885-.42911.09841-.42781l.00283-.02188.00188-.01696.03936.00413s.20305.01754.20814.01812c.08037.03058.1132.11117.09008.21575"/><path d="m12.04156 5.13561-.01152-.01276c-.14748.02942-.17451.03456-.31039.05254l-.01023.00986c-.0005.00166-.00094.00435-.00123.00637l-.00073-.00203c-.10117.23379-.0979.18321-.18046.36692-.00058-.0087-.00065-.01421-.00087-.02283l-.02058-.39808-.01297-.01276c-.15451.02942-.15857.03456-.30156.05254l-.01144.00986c-.00101.00515-.00138.01035-.00217.01587l.00116.00211c.01783.09167.01369.07116.03138.21501.0084.07059.01928.14212.02761.21184.01435.1169.02211.17473.03907.35279-.09617.15988-.11944.22009-.21141.36025l.00494.01269c.1398-.00515.17204-.00515.27546-.00515l.02283-.02551c.07804-.16842.67311-1.18954.67311-1.18954"/><path d="m6.98647 5.23452c.07892-.05515.08906-.13138.02217-.17096-.06775-.03971-.18567-.02724-.26546.02798-.0803.05443-.08914.13088-.02211.17067.06704.03898.18546.02753.26539-.02769"/><path d="m11.35801 6.33913-.11638.19914c-.03675.06792-.10502.11907-.21351.11944l-.1853-.00304.05384-.17944h.03595c.01907 0 .03297-.00123.0437-.00645.00913-.00296.01593-.01022.02348-.02087l.06834-.10878z"/></g></svg>