<svg viewBox="0 0 16 12" xmlns="http://www.w3.org/2000/svg" xmlns:xlink="http://www.w3.org/1999/xlink"><symbol id="a" viewBox="0 0 15.5 11.5"><path d="m1.49974 1.50439h12.5v8.5h-12.5z" fill="#fff"/><path d="m12.17919.25h-10.67919c-.69036 0-1.25.55964-1.25 1.25v8.5c0 .69036.55964 1.25 1.25 1.25h.30289" fill="none" stroke="#a1a5b0" stroke-linecap="round" stroke-linejoin="round" stroke-width=".5"/><path d="m13.69711.25h.30289c.69036 0 1.25.55964 1.25 1.25v8.5c0 .69036-.55964 1.25-1.25 1.25h-10.67919" fill="none" stroke="#a1a5b0" stroke-linecap="round" stroke-linejoin="round" stroke-width=".5"/></symbol><path d="m-8-10h32v32h-32z"/><use height="11.5" transform="translate(.25 .24793)" width="15.5" xlink:href="#a"/><g fill="#1434cb"><path d="m6.56751 4.30121-1.42703 3.40478h-.93102l-.70224-2.71718c-.04265-.16738-.07969-.22866-.20934-.29915-.21168-.11487-.5613-.2226-.86885-.28949l.02089-.09896h1.49871c.19103 0 .36275.12717.40611.34718l.37088 1.97019.91664-2.31737z"/><path d="m10.21551 6.59434c.00374-.8986-1.24259-.94812-1.23402-1.34953.00266-.12217.11901-.25204.37359-.28524.12621-.01653.47393-.02915.86832.15238l.15469-.72198c-.2119-.0769-.48457-.15094-.82386-.15094-.87058 0-1.48323.46281-1.4884 1.12548-.00562.49016.43731.76367.77099.92654.34329.16681.45845.27397.45717.42319-.00246.22841-.2738.32924-.5274.33319-.44268.0068-.69958-.1198-.90438-.21501l-.15962.74591c.20579.09442.58564.17679.97949.1809.92533 0 1.53059-.45705 1.53345-1.16488"/><path d="m12.51437 7.706h.8146l-.71107-3.40478h-.75186c-.16908 0-.31164.09841-.37482.2498l-1.32169 3.15498h.92484l.18367-.50859h1.12999zm-.98274-1.20642.46358-1.27837.2668 1.27837z"/><path d="m7.82597 4.30121-.72831 3.40479h-.88073l.72858-3.40479z"/></g></svg>