<!-- TODO: Export to design system -->
<svg height="228" preserveAspectRatio="xMidYMid" viewBox="0 0 256 228" width="256" xmlns="http://www.w3.org/2000/svg">
    <defs>
        <mask id="clipCircle">
            <path d="m166.984929 45.4330676 39.203988 68.1430654-39.219234 68.143065h-78.4232218l-39.2170561-68.143065 39.2039881-68.1430654z"
                  fill="#fff"/>
            <circle cx="127.765695" cy="113.576133" r="34.079156" fill="#000"/>
        </mask>
    </defs>

    <path d="m166.984929 181.719198-26.135992 45.433066h-68.4479849c-6.1066781 0-11.7459136-3.269834-14.7820815-8.568249l-55.36474309-96.528931c-3.00550335-5.248464-3.00550335-11.696371 0-16.944835l21.06996559-36.7210684 26.005312 45.1869524 39.2039881 68.143065z"
          fill="#fbbc05"/>
    <path d="m253.277263 122.055084-55.364743 96.544177c-3.034066 5.300221-8.674881 8.569019-14.782082 8.566073h-42.296747l26.135992-45.433068 39.232302-68.156133-39.232302-68.1430654h52.06943l34.222904 59.6771814c3.032071 5.239906 3.037883 11.699482.015246 16.944835z"
          fill="#ea4335"/>
    <path d="m219.052181 45.4330676h-130.5187878l-39.2039881 68.1430654-26.005312-45.2000204 34.2947775-59.80786178c3.0335085-5.3010606 8.6744297-8.57075027 14.7820815-8.56825082h110.7447319c6.104928.00551497 11.741472 3.27314929 14.779904 8.56825082z"
          fill="#4285f4"/>
    <path d="m166.984929 45.4330676 39.203988 68.1430654-39.219234 68.143065h-78.4232218l-39.2170561-68.143065 39.2039881-68.1430654z"
          fill="#e0e0e0" mask="url(#clipCircle)"/>
    <path d="m57.6188706 9.97523839c3.0340655-5.30022176 8.6748812-8.56901918 14.7820815-8.56607139h110.7447319c6.104477.00506558 11.740917 3.27180851 14.779904 8.56607139l20.329446 35.45782921h.812393l-21.141839-36.86481678c-3.033122-5.30038457-8.67303-8.56996877-14.779904-8.56825006h-110.7447319c-6.1066781.00112227-11.7459136 3.26983489-14.7820815 8.56825006l-34.2947775 59.80786178.4051079.7100278z"
          fill="#fff" opacity=".2"/>
    <path d="m49.3294051 113.576133 39.2039881-68.1430654h130.5187878l-.812393-1.4222336h-129.7063948l-39.2039881 68.143065"
          fill="#1a237e" fill-opacity=".2"/>
    <path d="m2.25412751 106.519415 21.06996559-36.7363149 26.005312 45.2021979 39.2039881 68.140888h77.6238958l.82764-1.422234h-78.4515358l-39.2039881-68.127819-26.005312-45.2000204-21.06996559 36.7210684c-1.58720468 2.794997-2.35698853 5.979789-2.22155932 9.191158.10915091-2.729946.87094404-5.393981 2.22155932-7.768924z"
          fill="#fff" opacity=".2"/>
    <path d="m141.661331 225.727853h-69.2603789c-6.106227-.000675-11.7453574-3.268495-14.7820815-8.566072l-55.36474309-96.52893c-1.3503796-2.375042-2.11215601-5.039019-2.22155932-7.768924-.14784311 3.21257.62276207 6.40076 2.22155932 9.191157l55.36474309 96.544177c3.0340655 5.300221 8.6748812 8.569019 14.7820815 8.566073h68.4479849z"
          fill="#bf360c" opacity=".2"/>
    <path d="m207.001311 113.576133-39.203988-68.1430654h-.812394l39.217056 68.1430654zm46.275952 7.056718-55.364743 96.544176c-3.034066 5.300222-8.674881 8.569019-14.782082 8.566072h-41.469107l-.82764 1.422233h42.296747c6.105256-.004286 11.742707-3.271134 14.782082-8.566071l55.364743-96.544177c1.592181-2.793025 2.362316-5.97927 2.221559-9.191157-.109403 2.729905-.871179 5.393882-2.221559 7.768924z"
          fill="#3e2723" opacity=".2"/>
    <path d="m219.052181 46.8422331 34.225082 59.6771819c1.350615 2.374943 2.112408 5.038978 2.221559 7.768924.147843-3.212571-.622762-6.400761-2.221559-9.191158l-34.225082-59.6771814h-52.067252l.82764 1.4222335zm-52.067252 136.2991989 40.016382-69.565299h-.799326l-39.217056 68.143065-26.135992 45.433066h.812394z"
          fill="#fff" opacity=".2"/>
</svg>