<svg width="147" height="26" viewBox="0 0 147 26" fill="none" xmlns="http://www.w3.org/2000/svg">
<path d="M7.22067 20.0467C5.96435 20.0467 4.85324 19.7278 3.88733 19.0902C2.92774 18.4526 2.17648 17.5719 1.63355 16.4482C1.09062 15.3181 0.819153 14.0145 0.819153 12.5372C0.819153 11.0473 1.09062 9.73731 1.63355 8.60726C2.17648 7.4709 2.92774 6.58706 3.88733 5.95574C4.85324 5.31812 5.96435 4.99931 7.22067 4.99931C8.47698 4.99931 9.58494 5.31812 10.5445 5.95574C11.5041 6.59337 12.2554 7.47721 12.7983 8.60726C13.3476 9.73731 13.6222 11.0473 13.6222 12.5372C13.6222 14.0145 13.3507 15.3181 12.8078 16.4482C12.2649 17.5719 11.5104 18.4526 10.5445 19.0902C9.58494 19.7278 8.47698 20.0467 7.22067 20.0467ZM7.22067 18.5031C8.23077 18.5031 9.0862 18.2316 9.78696 17.6887C10.4877 17.1458 11.018 16.4229 11.3779 15.5201C11.744 14.6174 11.9271 13.623 11.9271 12.5372C11.9271 11.4513 11.744 10.4539 11.3779 9.54476C11.018 8.63567 10.4877 7.9065 9.78696 7.35726C9.0862 6.80802 8.23077 6.5334 7.22067 6.5334C6.21688 6.5334 5.36145 6.80802 4.65438 7.35726C3.95362 7.9065 3.42016 8.63567 3.054 9.54476C2.69415 10.4539 2.51423 11.4513 2.51423 12.5372C2.51423 13.623 2.69415 14.6174 3.054 15.5201C3.42016 16.4229 3.95362 17.1458 4.65438 17.6887C5.35514 18.2316 6.21057 18.5031 7.22067 18.5031Z" fill="white"/>
<path d="M19.891 10.6527V19.7436H18.2054V5.19817H19.8436V7.48037H19.9952C20.3361 6.73542 20.8664 6.13883 21.5861 5.69059C22.3121 5.23605 23.2085 5.00878 24.2755 5.00878C25.254 5.00878 26.1126 5.21395 26.8512 5.62431C27.5962 6.02835 28.1738 6.62494 28.5842 7.41408C29.0008 8.20322 29.2092 9.17229 29.2092 10.3213V19.7436H27.5236V10.4254C27.5236 9.23226 27.189 8.28845 26.5198 7.594C25.8569 6.89956 24.9667 6.55234 23.8493 6.55234C23.0854 6.55234 22.4068 6.71648 21.8133 7.04476C21.2199 7.37304 20.7496 7.84653 20.4023 8.46521C20.0614 9.07759 19.891 9.80675 19.891 10.6527Z" fill="white"/>
<path d="M34.8814 19.7436V0.349684H36.5765V7.97279H36.728C36.9174 7.53719 37.1888 7.08895 37.5424 6.62809C37.9022 6.16723 38.3725 5.78213 38.9534 5.47279C39.5405 5.15713 40.2791 4.99931 41.1693 4.99931C42.3624 4.99931 43.4104 5.31496 44.3132 5.94628C45.216 6.57128 45.9199 7.4488 46.4249 8.57885C46.93 9.70259 47.1825 11.0126 47.1825 12.5088C47.1825 14.0113 46.93 15.3276 46.4249 16.4576C45.9262 17.5877 45.2254 18.4684 44.3227 19.0997C43.4262 19.731 42.3845 20.0467 41.1977 20.0467C40.3138 20.0467 39.5752 19.8888 38.9818 19.5732C38.3946 19.2575 37.9212 18.8693 37.5613 18.4084C37.2015 17.9412 36.9237 17.4867 36.728 17.0448H36.5196V19.7436H34.8814ZM36.548 12.4804C36.548 13.6546 36.7217 14.6963 37.0689 15.6054C37.4224 16.5081 37.9275 17.2184 38.584 17.736C39.2469 18.2474 40.0487 18.5031 40.9893 18.5031C41.9552 18.5031 42.7728 18.2379 43.442 17.7076C44.1112 17.171 44.6194 16.4482 44.9666 15.5391C45.3138 14.63 45.4874 13.6104 45.4874 12.4804C45.4874 11.3629 45.3138 10.356 44.9666 9.45953C44.6257 8.56307 44.1206 7.85284 43.4515 7.32885C42.7823 6.79855 41.9616 6.5334 40.9893 6.5334C40.0424 6.5334 39.2374 6.78908 38.5746 7.30044C37.918 7.80549 37.4161 8.50625 37.0689 9.40271C36.7217 10.2929 36.548 11.3188 36.548 12.4804Z" fill="white"/>
<path d="M57.4215 20.0467C56.1652 20.0467 55.0541 19.7278 54.0882 19.0902C53.1286 18.4526 52.3773 17.5719 51.8344 16.4482C51.2914 15.3181 51.02 14.0145 51.02 12.5372C51.02 11.0473 51.2914 9.73731 51.8344 8.60726C52.3773 7.4709 53.1286 6.58706 54.0882 5.95574C55.0541 5.31812 56.1652 4.99931 57.4215 4.99931C58.6778 4.99931 59.7858 5.31812 60.7453 5.95574C61.7049 6.59337 62.4562 7.47721 62.9991 8.60726C63.5484 9.73731 63.823 11.0473 63.823 12.5372C63.823 14.0145 63.5515 15.3181 63.0086 16.4482C62.4657 17.5719 61.7113 18.4526 60.7453 19.0902C59.7858 19.7278 58.6778 20.0467 57.4215 20.0467ZM57.4215 18.5031C58.4316 18.5031 59.287 18.2316 59.9878 17.6887C60.6885 17.1458 61.2188 16.4229 61.5787 15.5201C61.9448 14.6174 62.1279 13.623 62.1279 12.5372C62.1279 11.4513 61.9448 10.4539 61.5787 9.54476C61.2188 8.63567 60.6885 7.9065 59.9878 7.35726C59.287 6.80802 58.4316 6.5334 57.4215 6.5334C56.4177 6.5334 55.5623 6.80802 54.8552 7.35726C54.1544 7.9065 53.621 8.63567 53.2548 9.54476C52.895 10.4539 52.715 11.4513 52.715 12.5372C52.715 13.623 52.895 14.6174 53.2548 15.5201C53.621 16.4229 54.1544 17.1458 54.8552 17.6887C55.556 18.2316 56.4114 18.5031 57.4215 18.5031Z" fill="white"/>
<path d="M72.4687 20.0751C71.5912 20.0751 70.7894 19.9046 70.0634 19.5637C69.3374 19.2165 68.7597 18.7177 68.3304 18.0675C67.9011 17.4109 67.6865 16.6155 67.6865 15.6811C67.6865 14.9614 67.8222 14.3554 68.0937 13.8629C68.3652 13.3705 68.7503 12.9665 69.249 12.6508C69.7477 12.3352 70.338 12.0858 71.0198 11.9027C71.7017 11.7196 72.4529 11.5776 73.2736 11.4766C74.088 11.3756 74.7761 11.2872 75.338 11.2114C75.9062 11.1357 76.3387 11.0157 76.6354 10.8516C76.9321 10.6874 77.0804 10.4223 77.0804 10.0561V9.71521C77.0804 8.72405 76.7837 7.94438 76.1903 7.3762C75.6032 6.8017 74.7572 6.51446 73.6524 6.51446C72.6044 6.51446 71.749 6.74489 71.0861 7.20575C70.4296 7.6666 69.9687 8.20953 69.7035 8.83453L68.1032 8.25688C68.4314 7.46143 68.886 6.82696 69.4668 6.35347C70.0476 5.87367 70.6979 5.52961 71.4176 5.32128C72.1373 5.10663 72.8664 4.99931 73.6051 4.99931C74.1606 4.99931 74.7383 5.07191 75.338 5.21711C75.9441 5.36231 76.5059 5.61484 77.0236 5.97468C77.5413 6.32822 77.9611 6.8238 78.2831 7.46143C78.6051 8.09274 78.766 8.89451 78.766 9.86673V19.7436H77.0804V17.4425H76.9763C76.7743 17.8718 76.4744 18.2884 76.0767 18.6925C75.6789 19.0965 75.1802 19.428 74.5804 19.6868C73.9807 19.9456 73.2768 20.0751 72.4687 20.0751ZM72.696 18.5315C73.5924 18.5315 74.3689 18.3326 75.0255 17.9349C75.6821 17.5372 76.1871 17.01 76.5407 16.3535C76.9005 15.6906 77.0804 14.9614 77.0804 14.166V12.0637C76.9542 12.1836 76.7427 12.291 76.446 12.3857C76.1556 12.4804 75.8178 12.5656 75.4327 12.6414C75.0539 12.7108 74.6751 12.7708 74.2963 12.8213C73.9176 12.8718 73.5767 12.916 73.2736 12.9539C72.4529 13.0549 71.7522 13.2127 71.1713 13.4273C70.5905 13.642 70.1455 13.9387 69.8361 14.3175C69.5268 14.69 69.3721 15.1698 69.3721 15.7569C69.3721 16.6407 69.6878 17.3257 70.3191 17.8118C70.9504 18.2916 71.7427 18.5315 72.696 18.5315Z" fill="white"/>
<path d="M84.1329 19.7436V5.19817H85.7711V7.43302H85.8942C86.1846 6.70069 86.6897 6.11042 87.4094 5.66218C88.1354 5.20764 88.9561 4.98037 89.8715 4.98037C90.0104 4.98037 90.1651 4.98352 90.3355 4.98984C90.506 4.99615 90.648 5.00246 90.7617 5.00878V6.72279C90.6859 6.71016 90.5533 6.69122 90.3639 6.66597C90.1745 6.64072 89.9693 6.62809 89.7484 6.62809C88.9908 6.62809 88.3153 6.78908 87.7219 7.11105C87.1348 7.4267 86.6707 7.86547 86.3298 8.42734C85.9889 8.9892 85.8185 9.62999 85.8185 10.3497V19.7436H84.1329Z" fill="white"/>
<path d="M99.315 20.0467C98.1218 20.0467 97.077 19.731 96.1805 19.0997C95.2841 18.4684 94.5833 17.5877 94.0783 16.4576C93.5795 15.3276 93.3302 14.0113 93.3302 12.5088C93.3302 11.0126 93.5795 9.70259 94.0783 8.57885C94.5833 7.4488 95.2872 6.57128 96.19 5.94628C97.0928 5.31496 98.1439 4.99931 99.3434 4.99931C100.227 4.99931 100.963 5.15713 101.55 5.47279C102.137 5.78213 102.607 6.16723 102.961 6.62809C103.314 7.08895 103.589 7.53719 103.785 7.97279H103.936V0.349684H105.631V19.7436H103.984V17.0448H103.785C103.589 17.4867 103.311 17.9412 102.951 18.4084C102.592 18.8693 102.115 19.2575 101.521 19.5732C100.934 19.8888 100.199 20.0467 99.315 20.0467ZM99.5139 18.5031C100.455 18.5031 101.256 18.2474 101.919 17.736C102.582 17.2184 103.087 16.5081 103.434 15.6054C103.788 14.6963 103.965 13.6546 103.965 12.4804C103.965 11.3188 103.791 10.2929 103.444 9.40271C103.097 8.50625 102.592 7.80549 101.929 7.30044C101.266 6.78908 100.461 6.5334 99.5139 6.5334C98.5417 6.5334 97.7209 6.79855 97.0518 7.32885C96.3889 7.85284 95.8838 8.56307 95.5366 9.45953C95.1957 10.356 95.0252 11.3629 95.0252 12.4804C95.0252 13.6104 95.1989 14.63 95.5461 15.5391C95.8933 16.4482 96.3983 17.171 97.0612 17.7076C97.7304 18.2379 98.548 18.5031 99.5139 18.5031Z" fill="white"/>
<path d="M111.334 19.7436V5.19817H113.029V19.7436H111.334ZM112.196 2.69817C111.849 2.69817 111.552 2.58138 111.306 2.34779C111.06 2.10789 110.937 1.82064 110.937 1.48605C110.937 1.15145 111.06 0.867361 111.306 0.633776C111.552 0.393876 111.849 0.273926 112.196 0.273926C112.543 0.273926 112.84 0.393876 113.086 0.633776C113.332 0.867361 113.455 1.15145 113.455 1.48605C113.455 1.82064 113.332 2.10789 113.086 2.34779C112.84 2.58138 112.543 2.69817 112.196 2.69817Z" fill="white"/>
<path d="M120.056 10.6527V19.7436H118.37V5.19817H120.008V7.48037H120.16C120.501 6.73542 121.031 6.13883 121.751 5.69059C122.477 5.23605 123.373 5.00878 124.44 5.00878C125.419 5.00878 126.277 5.21395 127.016 5.62431C127.761 6.02835 128.339 6.62494 128.749 7.41408C129.166 8.20322 129.374 9.17229 129.374 10.3213V19.7436H127.688V10.4254C127.688 9.23226 127.354 8.28845 126.685 7.594C126.022 6.89956 125.132 6.55234 124.014 6.55234C123.25 6.55234 122.572 6.71648 121.978 7.04476C121.385 7.37304 120.914 7.84653 120.567 8.46521C120.226 9.07759 120.056 9.80675 120.056 10.6527Z" fill="white"/>
<path d="M140.245 25.5012C139.254 25.5012 138.386 25.3718 137.641 25.1129C136.896 24.8604 136.268 24.5132 135.756 24.0713C135.245 23.6294 134.847 23.1338 134.563 22.5845L135.946 21.6754C136.154 22.0416 136.432 22.4015 136.779 22.755C137.133 23.1085 137.59 23.4021 138.152 23.6357C138.72 23.8693 139.418 23.986 140.245 23.986C141.533 23.986 142.571 23.6641 143.361 23.0201C144.156 22.3762 144.554 21.3756 144.554 20.0182V16.7417H144.402C144.206 17.1836 143.926 17.6256 143.559 18.0675C143.193 18.5031 142.713 18.8661 142.12 19.1565C141.533 19.4469 140.804 19.5921 139.932 19.5921C138.771 19.5921 137.739 19.3049 136.836 18.7304C135.939 18.1559 135.232 17.3352 134.715 16.2682C134.203 15.195 133.948 13.9166 133.948 12.433C133.948 10.9621 134.197 9.66787 134.696 8.55044C135.201 7.43302 135.905 6.56181 136.807 5.93681C137.71 5.31181 138.761 4.99931 139.961 4.99931C140.851 4.99931 141.59 5.15713 142.177 5.47279C142.764 5.78213 143.234 6.16723 143.588 6.62809C143.948 7.08895 144.229 7.53719 144.431 7.97279H144.601V5.19817H146.249V20.1224C146.249 21.3535 145.987 22.3667 145.463 23.1622C144.939 23.9576 144.225 24.5448 143.323 24.9235C142.42 25.3086 141.394 25.5012 140.245 25.5012ZM140.131 18.0485C141.066 18.0485 141.864 17.8244 142.527 17.3762C143.19 16.9217 143.698 16.2714 144.052 15.4254C144.405 14.5795 144.582 13.5725 144.582 12.4046C144.582 11.2682 144.409 10.2613 144.061 9.38377C143.714 8.49994 143.209 7.80549 142.546 7.30044C141.89 6.78908 141.085 6.5334 140.131 6.5334C139.159 6.5334 138.338 6.79539 137.669 7.31938C137 7.84337 136.495 8.55044 136.154 9.44059C135.813 10.3244 135.643 11.3124 135.643 12.4046C135.643 13.5157 135.816 14.4974 136.164 15.3497C136.511 16.1956 137.019 16.8585 137.688 17.3383C138.357 17.8118 139.172 18.0485 140.131 18.0485Z" fill="white"/>
</svg>
