<svg fill="none" height="86" viewBox="0 0 242 86" width="242" xmlns="http://www.w3.org/2000/svg"><g fill="#0e1015"><path d="m0 85.9878v-66.9608h8.35549v6.8389c2.04971-2.7722 3.52061-3.9812 6.13701-5.6177s5.6065-2.4425 8.9583-2.4425c4.2923 0 8.2229 1.1236 11.7797 3.3707s6.342 5.2879 8.3555 9.1226c2.0135 3.847 3.0263 8.0358 3.0263 12.5911 0 4.3476-1.0008 8.4632-3.0263 12.3468-2.0135 3.8713-4.7866 6.9855-8.3073 9.3302-3.5206 2.3448-7.4633 3.5172-11.8279 3.5172-3.3639 0-6.3419-.8182-8.9583-2.4425-2.6164-1.6364-4.232-3.0286-6.13701-5.3612v25.7194zm23.1615-26.0614c4.7022 0 8.3916-1.6364 11.0803-4.8972 2.6887-3.2607 4.027-7.3396 4.027-12.2368s-1.3624-8.9273-4.0752-12.0903c-2.7128-3.1631-6.3902-4.7385-11.0321-4.7385-4.7023 0-8.3435 1.5754-10.9237 4.7385-2.58016 3.163-3.87026 7.2908-3.87026 12.3956 0 5.0315 1.27804 9.0982 3.82206 12.188 2.544 3.1019 6.2093 4.6407 10.9719 4.6407z"/><path d="m122.897 66.9609h-8.259v-6.6925c-.832 1.2213-2.653 3.0287-4.98 4.7507-2.556 1.8929-5.92 3.0653-10.417 3.0653-5.3654 0-9.513-1.9173-12.4308-5.7643-2.9178-3.8347-4.3767-8.8173-4.3767-14.9358v-28.3573h8.3555v26.3178c0 4.2133.9284 7.7061 2.7731 10.4539 1.8447 2.76 4.6179 4.1278 8.3069 4.1278 4.088 0 7.247-1.4777 9.465-4.4331 2.219-2.9554 3.328-6.9123 3.328-11.8827v-24.5837h8.259v47.9339z"/><path d="m133.977 66.9608v-47.9339h8.356v7.3397c1.519-2.6501 3.484-4.1522 5.835-5.7154s5.438-2.3448 9.26-2.3448c1.278 0 2.52.2076 3.726.6106v8.3655c-1.339-.3419-2.689-.5129-4.027-.5129-9.863 0-14.806 6.2894-14.806 18.8682v21.3107z"/><path d="m202.123 66.9608v-6.6924c-1.386 2.0394-3.52 3.737-6.137 5.3612-2.616 1.6243-5.606 2.4425-8.958 2.4425-4.365 0-8.307-1.1724-11.828-3.5172s-6.294-5.4589-8.307-9.3303c-2.014-3.8713-3.027-7.9869-3.027-12.3467 0-4.5553 1.013-8.7564 3.027-12.5911 2.013-3.8347 4.798-6.8878 8.355-9.1227 3.557-2.247 7.488-3.3706 11.78-3.3706 3.352 0 6.342.8183 8.958 2.4425 2.617 1.6243 4.256 2.6379 6.137 5.6055v-6.839h8.259v47.9339zm-3.87-11.6751c2.58-3.0898 3.882-7.1565 3.882-12.188 0-5.1048-1.29-9.2326-3.882-12.3956-2.58-3.1631-6.258-4.7385-11.02-4.7385-4.63 0-8.307 1.5754-11.02 4.7385-2.725 3.163-4.076 7.1931-4.076 12.0903s1.339 8.9761 4.027 12.2368c2.689 3.2608 6.379 4.8972 11.081 4.8972 4.75 0 8.428-1.5387 11.008-4.6407z"/><path d="m75.971 58.9006v8.0602h-8.1505c-1.6639 0-4.437 0-6.6916 0 0 0-5.7633 0-5.7633-5.4712v-61.4896h8.3555v56.1528c0 1.5143 1.2178 2.7478 2.7128 2.7478z"/><path d="m241.875 58.9006v8.0602h-8.151c-1.663 0-4.436 0-6.679 0 0 0-5.763 0-5.763-5.4712v-61.4896h8.355v56.1528c0 1.5143 1.218 2.7478 2.713 2.7478z"/></g></svg>