<svg fill="none" height="86" viewBox="0 0 86 86" width="86" xmlns="http://www.w3.org/2000/svg"><g fill="#0e1015"><path d="m0 4.62366v81.37634h13.4086v-70.5373c0-1.5321 1.242-2.7742 2.7742-2.7742h43v-12.6885h-54.55914c-2.55358 0-4.62366 2.07008-4.62366 4.62366z"/><path d="m42.7688 59.414c9.0652 0 16.414-7.3488 16.414-16.414s-7.3488-16.414-16.414-16.414-16.4139 7.3488-16.4139 16.414 7.3487 16.414 16.4139 16.414z"/><path d="m86 81.3763v-81.3763h-13.4086v70.5373c0 1.5321-1.242 2.7742-2.7742 2.7742h-43v12.6885h54.5591c2.5536 0 4.6237-2.0701 4.6237-4.6237z"/></g></svg>