<svg fill="none" height="96" viewBox="0 0 342 96" width="342" xmlns="http://www.w3.org/2000/svg"><g fill="#0e1015"><path d="m0 23.957v52.043h8.57527v-45.1111c0-.9798.7943-1.7742 1.77423-1.7742h27.5v-8.1147h-34.89251c-1.6331 0-2.95699 1.3239-2.95699 2.957z"/><path d="m27.3522 58.9973c5.7975 0 10.4973-4.6998 10.4973-10.4973s-4.6998-10.4973-10.4973-10.4973-10.4973 4.6998-10.4973 10.4973 4.6998 10.4973 10.4973 10.4973z"/><path d="m55 73.043v-52.043h-8.5753v45.1111c0 .9798-.7943 1.7742-1.7742 1.7742h-27.5v8.1147h34.8925c1.6331 0 2.957-1.3239 2.957-2.957z"/><path d="m72 95.9864v-74.7469h9.3271v7.6342c2.288-3.0946 3.93-4.4442 6.8506-6.271 2.9206-1.8267 6.2584-2.7265 10-2.7265 4.7913 0 9.1793 1.2542 13.1493 3.7626s7.079 5.9029 9.327 10.1835c2.248 4.2942 3.378 8.9701 3.378 14.055 0 4.8532-1.117 9.4474-3.378 13.7825-2.248 4.3215-5.343 7.7978-9.273 10.4152-3.93 2.6175-8.331 3.9262-13.2033 3.9262-3.7551 0-7.0794-.9134-10-2.7265-2.9206-1.8268-4.7241-3.3809-6.8506-5.9847v28.71zm25.8546-29.0917c5.2494 0 9.3674-1.8268 12.3684-5.4667 3.002-3.6398 4.496-8.1931 4.496-13.6597s-1.521-9.9654-4.549-13.4962c-3.029-3.5308-7.134-5.2894-12.3154-5.2894-5.2489 0-9.3136 1.7586-12.1938 5.2894s-4.3203 8.1386-4.3203 13.837c0 5.6166 1.4267 10.1562 4.2665 13.6052 2.8398 3.4627 6.9314 5.1804 12.2476 5.1804z"/><path d="m209.187 74.747h-9.219v-7.4706c-.929 1.3632-2.961 3.3808-5.559 5.303-2.853 2.113-6.608 3.4217-11.628 3.4217-5.99 0-10.62-2.1402-13.877-6.4345-3.257-4.2806-4.885-9.8426-4.885-16.6725v-31.6547h9.327v29.3781c0 4.7032 1.036 8.6021 3.095 11.6694 2.06 3.0809 5.155 4.6077 9.274 4.6077 4.562 0 8.088-1.6495 10.565-4.9485 2.476-3.2991 3.715-7.716 3.715-13.2645v-27.4422h9.219v53.5076z"/><path d="m221.556 74.7469v-53.5075h9.327v8.1931c1.696-2.9582 3.89-4.6351 6.514-6.38 2.625-1.745 6.07-2.6174 10.337-2.6174 1.426 0 2.812.2317 4.158.6816v9.3382c-1.494-.3817-3.001-.5725-4.495-.5725-11.009 0-16.527 7.0207-16.527 21.0622v23.7887z"/><path d="m297.626 74.747v-7.4707c-1.548 2.2767-3.93 4.1716-6.851 5.9847-2.92 1.8131-6.258 2.7265-10 2.7265-4.872 0-9.273-1.3087-13.203-3.9262-3.93-2.6174-7.026-6.0937-9.273-10.4152-2.248-4.3215-3.378-8.9156-3.378-13.7824 0-5.0849 1.13-9.7745 3.378-14.0551 2.247-4.2806 5.356-7.6887 9.327-10.1835 3.97-2.5084 8.358-3.7626 13.149-3.7626 3.742 0 7.08.9134 10 2.7265 2.921 1.8132 4.751 2.9447 6.851 6.2574v-7.6342h9.219v53.5075zm-4.321-13.0327c2.881-3.449 4.334-7.9886 4.334-13.6052 0-5.6984-1.44-10.3062-4.334-13.837-2.88-3.5308-6.985-5.2894-12.301-5.2894-5.168 0-9.273 1.7586-12.301 5.2894-3.042 3.5308-4.55 8.0295-4.55 13.4962 0 5.4666 1.494 10.0198 4.496 13.6597 3.001 3.6399 7.119 5.4666 12.368 5.4666 5.303 0 9.408-1.7177 12.288-5.1803z"/><path d="m156.805 65.7495v8.9974h-9.098c-1.858 0-4.953 0-7.47 0 0 0-6.434 0-6.434-6.1073v-68.6396h9.328v62.6822c0 1.6904 1.359 3.0673 3.028 3.0673z"/><path d="m342 65.7495v8.9974h-9.098c-1.858 0-4.953 0-7.457 0 0 0-6.433 0-6.433-6.1073v-68.6396h9.327v62.6822c0 1.6904 1.359 3.0673 3.028 3.0673z"/></g></svg>